IntelOneMono-Italic-quadratic.ufo
<glyph name="exclam" format="2">
  <advance width="614"/>
  <unicode hex="0021"/>
  <outline>
    <contour>
      <point x="337" y="242" type="line"/>
      <point x="283" y="242" type="line"/>
      <point x="363" y="710" type="line"/>
      <point x="527" y="710" type="line"/>
    </contour>
    <contour>
      <point x="170" y="35" type="qcurve"/>
      <point x="170" y="71"/>
      <point x="220" y="114"/>
      <point x="264" y="114" type="qcurve"/>
      <point x="299" y="114"/>
      <point x="337" y="88"/>
      <point x="337" y="64" type="qcurve"/>
      <point x="337" y="28"/>
      <point x="286" y="-15"/>
      <point x="242" y="-15" type="qcurve"/>
      <point x="207" y="-15"/>
      <point x="170" y="11"/>
    </contour>
  </outline>
</glyph>
<glyph name="numbersign" format="2">
  <advance width="614"/>
  <unicode hex="0023"/>
  <outline>
    <contour>
      <point x="147" y="172" type="line"/>
      <point x="44" y="172" type="line"/>
      <point x="44" y="249" type="line"/>
      <point x="178" y="249" type="line"/>
      <point x="242" y="411" type="line"/>
      <point x="123" y="411" type="line"/>
      <point x="123" y="489" type="line"/>
      <point x="273" y="489" type="line"/>
      <point x="343" y="666" type="line"/>
      <point x="406" y="666" type="line"/>
      <point x="335" y="486" type="line"/>
      <point x="461" y="486" type="line"/>
      <point x="533" y="666" type="line"/>
      <point x="596" y="666" type="line"/>
      <point x="526" y="489" type="line"/>
      <point x="626" y="489" type="line"/>
      <point x="626" y="411" type="line"/>
      <point x="494" y="411" type="line"/>
      <point x="430" y="249" type="line"/>
      <point x="547" y="249" type="line"/>
      <point x="547" y="172" type="line"/>
      <point x="399" y="172" type="line"/>
      <point x="326" y="-12" type="line"/>
      <point x="262" y="-12" type="line"/>
      <point x="337" y="175" type="line"/>
      <point x="210" y="175" type="line"/>
      <point x="136" y="-12" type="line"/>
      <point x="74" y="-12" type="line"/>
    </contour>
    <contour>
      <point x="226" y="229" type="line"/>
      <point x="365" y="229" type="line"/>
      <point x="445" y="431" type="line"/>
      <point x="307" y="431" type="line"/>
    </contour>
  </outline>
</glyph>
<glyph name="percent" format="2">
  <advance width="614"/>
  <unicode hex="0025"/>
  <outline>
    <contour>
      <point x="416" y="558" type="qcurve"/>
      <point x="416" y="460"/>
      <point x="308" y="318"/>
      <point x="227" y="318" type="qcurve"/>
      <point x="169" y="318"/>
      <point x="110" y="374"/>
      <point x="110" y="429" type="qcurve"/>
      <point x="110" y="528"/>
      <point x="218" y="670"/>
      <point x="300" y="670" type="qcurve"/>
      <point x="357" y="670"/>
      <point x="416" y="613"/>
    </contour>
    <contour>
      <point x="716" y="654" type="line"/>
      <point x="436" y="377" type="line"/>
      <point x="396" y="377" type="line"/>
      <point x="610" y="660" type="line"/>
      <point x="717" y="660" type="line"/>
    </contour>
    <contour>
      <point x="353" y="555" type="qcurve"/>
      <point x="353" y="585"/>
      <point x="324" y="614"/>
      <point x="295" y="614" type="qcurve"/>
      <point x="244" y="614"/>
      <point x="173" y="501"/>
      <point x="173" y="433" type="qcurve"/>
      <point x="173" y="403"/>
      <point x="202" y="373"/>
      <point x="231" y="373" type="qcurve"/>
      <point x="282" y="373"/>
      <point x="353" y="487"/>
    </contour>
    <contour>
      <point x="558" y="226" type="qcurve"/>
      <point x="558" y="127"/>
      <point x="450" y="-15"/>
      <point x="368" y="-15" type="qcurve"/>
      <point x="311" y="-15"/>
      <point x="252" y="42"/>
      <point x="252" y="97" type="qcurve"/>
      <point x="252" y="195"/>
      <point x="360" y="337"/>
      <point x="442" y="337" type="qcurve"/>
      <point x="499" y="337"/>
      <point x="558" y="281"/>
    </contour>
    <contour>
      <point x="-47" y="1" type="line"/>
      <point x="232" y="278" type="line"/>
      <point x="273" y="278" type="line"/>
      <point x="59" y="-5" type="line"/>
      <point x="-48" y="-5" type="line"/>
    </contour>
    <contour>
      <point x="495" y="222" type="qcurve"/>
      <point x="495" y="252"/>
      <point x="466" y="282"/>
      <point x="437" y="282" type="qcurve"/>
      <point x="386" y="282"/>
      <point x="315" y="168"/>
      <point x="315" y="100" type="qcurve"/>
      <point x="315" y="70"/>
      <point x="344" y="41"/>
      <point x="373" y="41" type="qcurve"/>
      <point x="424" y="41"/>
      <point x="495" y="154"/>
    </contour>
  </outline>
</glyph>
<glyph name="ampersand" format="2">
  <advance width="614"/>
  <unicode hex="0026"/>
  <outline>
    <contour>
      <point x="296" y="310" type="line"/>
      <point x="230" y="290"/>
      <point x="166" y="261"/>
      <point x="146" y="241" type="qcurve"/>
      <point x="129" y="224"/>
      <point x="113" y="175"/>
      <point x="113" y="140" type="qcurve"/>
      <point x="113" y="103"/>
      <point x="151" y="65"/>
      <point x="188" y="65" type="qcurve"/>
      <point x="233" y="65"/>
      <point x="298" y="114"/>
      <point x="348" y="184" type="qcurve"/>
    </contour>
    <contour>
      <point x="27" y="128" type="qcurve"/>
      <point x="27" y="180"/>
      <point x="53" y="253"/>
      <point x="82" y="282" type="qcurve"/>
      <point x="108" y="308"/>
      <point x="194" y="346"/>
      <point x="273" y="367" type="qcurve"/>
      <point x="250" y="421"/>
      <point x="232" y="480"/>
      <point x="232" y="508" type="qcurve"/>
      <point x="232" y="578"/>
      <point x="338" y="669"/>
      <point x="421" y="669" type="qcurve"/>
      <point x="456" y="669"/>
      <point x="532" y="659"/>
      <point x="581" y="649" type="qcurve"/>
      <point x="563" y="581" type="line"/>
      <point x="515" y="591"/>
      <point x="451" y="600"/>
      <point x="424" y="600" type="qcurve"/>
      <point x="376" y="600"/>
      <point x="317" y="547"/>
      <point x="317" y="505" type="qcurve"/>
      <point x="317" y="489"/>
      <point x="326" y="454"/>
      <point x="335" y="432" type="qcurve"/>
      <point x="407" y="257" type="line"/>
      <point x="527" y="434" type="line"/>
      <point x="590" y="396" type="line"/>
      <point x="440" y="188" type="line"/>
      <point x="519" y="0" type="line"/>
      <point x="429" y="0" type="line"/>
      <point x="380" y="119" type="line"/>
      <point x="323" y="46"/>
      <point x="235" y="-8"/>
      <point x="170" y="-8" type="qcurve"/>
      <point x="102" y="-8"/>
      <point x="27" y="63"/>
    </contour>
  </outline>
</glyph>
<glyph name="parenleft" format="2">
  <advance width="614"/>
  <unicode hex="0028"/>
  <outline>
    <contour>
      <point x="128" y="230" type="qcurve"/>
      <point x="128" y="397"/>
      <point x="384" y="690"/>
      <point x="631" y="805" type="qcurve"/>
      <point x="671" y="745" type="line"/>
      <point x="442" y="633"/>
      <point x="216" y="378"/>
      <point x="216" y="230" type="qcurve"/>
      <point x="216" y="142"/>
      <point x="324" y="-18"/>
      <point x="431" y="-89" type="qcurve"/>
      <point x="381" y="-147" type="line"/>
      <point x="255" y="-66"/>
      <point x="128" y="123"/>
    </contour>
  </outline>
</glyph>
<glyph name="parenright" format="2">
  <advance width="614"/>
  <unicode hex="0029"/>
  <outline>
    <contour>
      <point x="542" y="428" type="qcurve"/>
      <point x="542" y="261"/>
      <point x="286" y="-32"/>
      <point x="39" y="-147" type="qcurve"/>
      <point x="-1" y="-87" type="line"/>
      <point x="228" y="25"/>
      <point x="454" y="280"/>
      <point x="454" y="428" type="qcurve"/>
      <point x="454" y="516"/>
      <point x="345" y="676"/>
      <point x="238" y="747" type="qcurve"/>
      <point x="289" y="805" type="line"/>
      <point x="415" y="724"/>
      <point x="542" y="535"/>
    </contour>
  </outline>
</glyph>
<glyph name="comma" format="2">
  <advance width="614"/>
  <unicode hex="002C"/>
  <outline>
    <contour>
      <point x="127" y="-152" type="qcurve"/>
      <point x="37" y="-152" type="line"/>
      <point x="38" y="-150" type="line"/>
      <point x="144" y="-56"/>
      <point x="205" y="34"/>
      <point x="231" y="132" type="qcurve"/>
      <point x="367" y="132" type="line"/>
      <point x="327" y="11"/>
      <point x="242" y="-86"/>
    </contour>
  </outline>
</glyph>
<glyph name="hyphen" format="2">
  <advance width="614"/>
  <unicode hex="002D"/>
  <outline>
    <contour>
      <point x="135" y="286" type="line"/>
      <point x="159" y="369" type="line"/>
      <point x="533" y="369" type="line"/>
      <point x="509" y="286" type="line"/>
    </contour>
  </outline>
</glyph>
<glyph name="period" format="2">
  <advance width="614"/>
  <unicode hex="002E"/>
  <outline>
    <contour>
      <point x="354" y="82" type="qcurve"/>
      <point x="354" y="38"/>
      <point x="299" y="-15"/>
      <point x="252" y="-15" type="qcurve"/>
      <point x="212" y="-15"/>
      <point x="170" y="19"/>
      <point x="170" y="50" type="qcurve"/>
      <point x="170" y="93"/>
      <point x="225" y="147"/>
      <point x="272" y="147" type="qcurve"/>
      <point x="311" y="147"/>
      <point x="354" y="113"/>
    </contour>
  </outline>
</glyph>
<glyph name="one" format="2">
  <advance width="614"/>
  <unicode hex="0031"/>
  <outline>
    <contour>
      <point x="463" y="0" type="line"/>
      <point x="48" y="0" type="line"/>
      <point x="68" y="72" type="line"/>
      <point x="220" y="72" type="line"/>
      <point x="394" y="545" type="line"/>
      <point x="209" y="458" type="line"/>
      <point x="234" y="546" type="line"/>
      <point x="488" y="664" type="line"/>
      <point x="521" y="664" type="line"/>
      <point x="307" y="72" type="line"/>
      <point x="484" y="72" type="line"/>
    </contour>
  </outline>
</glyph>
<glyph name="three" format="2">
  <advance width="614"/>
  <unicode hex="0033"/>
  <outline>
    <contour>
      <point x="475" y="583" type="line"/>
      <point x="170" y="583" type="line"/>
      <point x="191" y="655" type="line"/>
      <point x="614" y="655" type="line"/>
      <point x="614" y="608" type="line"/>
      <point x="343" y="383" type="line"/>
      <point x="343" y="380" type="line"/>
      <point x="441" y="372"/>
      <point x="532" y="302"/>
      <point x="532" y="234" type="qcurve"/>
      <point x="532" y="128"/>
      <point x="351" y="10"/>
      <point x="170" y="-1" type="qcurve"/>
      <point x="22" y="-10" type="line"/>
      <point x="37" y="67" type="line"/>
      <point x="163" y="75" type="line"/>
      <point x="300" y="85"/>
      <point x="440" y="161"/>
      <point x="440" y="224" type="qcurve"/>
      <point x="440" y="265"/>
      <point x="385" y="306"/>
      <point x="321" y="314" type="qcurve"/>
      <point x="299" y="316"/>
      <point x="247" y="319"/>
      <point x="217" y="319" type="qcurve"/>
      <point x="215" y="359" type="line"/>
      <point x="475" y="580" type="line"/>
    </contour>
  </outline>
</glyph>
<glyph name="four" format="2">
  <advance width="614"/>
  <unicode hex="0034"/>
  <outline>
    <contour>
      <point x="344" y="175" type="line"/>
      <point x="35" y="175" type="line"/>
      <point x="53" y="237" type="line"/>
      <point x="473" y="655" type="line"/>
      <point x="590" y="655" type="line"/>
      <point x="454" y="245" type="line"/>
      <point x="587" y="245" type="line"/>
      <point x="566" y="175" type="line"/>
      <point x="430" y="175" type="line"/>
      <point x="372" y="0" type="line"/>
      <point x="287" y="0" type="line"/>
    </contour>
    <contour>
      <point x="372" y="239" type="line"/>
      <point x="490" y="590" type="line"/>
      <point x="141" y="243" type="line"/>
      <point x="141" y="239" type="line"/>
    </contour>
  </outline>
</glyph>
<glyph name="six" format="2">
  <advance width="614"/>
  <unicode hex="0036"/>
  <outline>
    <contour>
      <point x="578" y="653" type="line"/>
      <point x="409" y="528" type="line"/>
      <point x="375" y="502"/>
      <point x="318" y="456"/>
      <point x="296" y="435" type="qcurve"/>
      <point x="423" y="421"/>
      <point x="541" y="331"/>
      <point x="541" y="248" type="qcurve"/>
      <point x="541" y="145"/>
      <point x="373" y="-15"/>
      <point x="259" y="-15" type="qcurve"/>
      <point x="170" y="-15"/>
      <point x="67" y="82"/>
      <point x="67" y="168" type="qcurve"/>
      <point x="67" y="266"/>
      <point x="196" y="454"/>
      <point x="333" y="557" type="qcurve"/>
      <point x="464" y="655" type="line"/>
      <point x="578" y="655" type="line"/>
    </contour>
    <contour>
      <point x="245" y="383" type="qcurve"/>
      <point x="198" y="330"/>
      <point x="154" y="228"/>
      <point x="154" y="172" type="qcurve"/>
      <point x="154" y="117"/>
      <point x="212" y="56"/>
      <point x="264" y="56" type="qcurve"/>
      <point x="339" y="56"/>
      <point x="454" y="173"/>
      <point x="454" y="244" type="qcurve"/>
      <point x="454" y="307"/>
      <point x="359" y="370"/>
    </contour>
  </outline>
</glyph>
<glyph name="seven" format="2">
  <advance width="614"/>
  <unicode hex="0037"/>
  <outline>
    <contour>
      <point x="639" y="590" type="line"/>
      <point x="188" y="0" type="line"/>
      <point x="84" y="0" type="line"/>
      <point x="84" y="2" type="line"/>
      <point x="534" y="575" type="line"/>
      <point x="534" y="580" type="line"/>
      <point x="159" y="580" type="line"/>
      <point x="181" y="655" type="line"/>
      <point x="650" y="655" type="line"/>
    </contour>
  </outline>
</glyph>
<glyph name="semicolon" format="2">
  <advance width="614"/>
  <unicode hex="003B"/>
  <outline>
    <contour>
      <point x="458" y="420" type="qcurve"/>
      <point x="458" y="377"/>
      <point x="399" y="322"/>
      <point x="352" y="322" type="qcurve"/>
      <point x="315" y="322"/>
      <point x="274" y="353"/>
      <point x="274" y="381" type="qcurve"/>
      <point x="274" y="422"/>
      <point x="332" y="478"/>
      <point x="379" y="478" type="qcurve"/>
      <point x="417" y="478"/>
      <point x="458" y="448"/>
    </contour>
    <contour>
      <point x="113" y="-152" type="qcurve"/>
      <point x="25" y="-152" type="line"/>
      <point x="26" y="-150" type="line"/>
      <point x="126" y="-49"/>
      <point x="186" y="40"/>
      <point x="220" y="132" type="qcurve"/>
      <point x="356" y="132" type="line"/>
      <point x="308" y="22"/>
      <point x="225" y="-74"/>
    </contour>
  </outline>
</glyph>
<glyph name="less" format="2">
  <advance width="614"/>
  <unicode hex="003C"/>
  <outline>
    <contour>
      <point x="83" y="282" type="line"/>
      <point x="105" y="361" type="line"/>
      <point x="633" y="563" type="line"/>
      <point x="609" y="478" type="line"/>
      <point x="168" y="316" type="line"/>
      <point x="516" y="153" type="line"/>
      <point x="494" y="79" type="line"/>
    </contour>
  </outline>
</glyph>
<glyph name="question" format="2">
  <advance width="614"/>
  <unicode hex="003F"/>
  <outline>
    <contour>
      <point x="273" y="242" type="qcurve"/>
      <point x="217" y="242" type="line"/>
      <point x="222" y="285"/>
      <point x="230" y="331"/>
      <point x="233" y="343" type="qcurve"/>
      <point x="238" y="361"/>
      <point x="264" y="383"/>
      <point x="298" y="397" type="qcurve"/>
      <point x="414" y="441" type="line"/>
      <point x="482" y="468"/>
      <point x="541" y="526"/>
      <point x="541" y="570" type="qcurve"/>
      <point x="541" y="609"/>
      <point x="490" y="653"/>
      <point x="444" y="653" type="qcurve"/>
      <point x="398" y="653"/>
      <point x="295" y="616"/>
      <point x="197" y="566" type="qcurve"/>
      <point x="169" y="632" type="line"/>
      <point x="266" y="684"/>
      <point x="392" y="725"/>
      <point x="459" y="725" type="qcurve"/>
      <point x="538" y="725"/>
      <point x="632" y="647"/>
      <point x="632" y="581" type="qcurve"/>
      <point x="632" y="508"/>
      <point x="546" y="415"/>
      <point x="445" y="375" type="qcurve"/>
      <point x="339" y="333" type="line"/>
      <point x="314" y="323"/>
      <point x="293" y="292"/>
    </contour>
    <contour>
      <point x="110" y="35" type="qcurve"/>
      <point x="110" y="71"/>
      <point x="160" y="114"/>
      <point x="205" y="114" type="qcurve"/>
      <point x="240" y="114"/>
      <point x="277" y="88"/>
      <point x="277" y="64" type="qcurve"/>
      <point x="277" y="28"/>
      <point x="227" y="-15"/>
      <point x="182" y="-15" type="qcurve"/>
      <point x="147" y="-15"/>
      <point x="110" y="11"/>
    </contour>
  </outline>
</glyph>
<glyph name="A" format="2">
  <advance width="614"/>
  <unicode hex="0041"/>
  <outline>
    <contour>
      <point x="174" y="178" type="line"/>
      <point x="67" y="0" type="line"/>
      <point x="-26" y="0" type="line"/>
      <point x="375" y="655" type="line"/>
      <point x="481" y="655" type="line"/>
      <point x="508" y="0" type="line"/>
      <point x="423" y="0" type="line"/>
      <point x="417" y="178" type="line"/>
    </contour>
    <contour>
      <point x="407" y="570" type="line"/>
      <point x="215" y="248" type="line"/>
      <point x="417" y="248" type="line"/>
    </contour>
  </outline>
</glyph>
<glyph name="C" format="2">
  <advance width="614"/>
  <unicode hex="0043"/>
  <outline>
    <contour>
      <point x="271" y="-15" type="qcurve"/>
      <point x="171" y="-15"/>
      <point x="66" y="95"/>
      <point x="66" y="201" type="qcurve"/>
      <point x="66" y="286"/>
      <point x="118" y="450"/>
      <point x="165" y="516" type="qcurve"/>
      <point x="219" y="590"/>
      <point x="365" y="670"/>
      <point x="448" y="670" type="qcurve"/>
      <point x="511" y="670"/>
      <point x="604" y="630"/>
      <point x="659" y="581" type="qcurve"/>
      <point x="608" y="518" type="line"/>
      <point x="560" y="562"/>
      <point x="489" y="598"/>
      <point x="443" y="598" type="qcurve"/>
      <point x="383" y="598"/>
      <point x="276" y="531"/>
      <point x="237" y="475" type="qcurve"/>
      <point x="199" y="421"/>
      <point x="156" y="281"/>
      <point x="156" y="204" type="qcurve"/>
      <point x="156" y="135"/>
      <point x="220" y="57"/>
      <point x="275" y="57" type="qcurve"/>
      <point x="318" y="57"/>
      <point x="413" y="94"/>
      <point x="486" y="138" type="qcurve"/>
      <point x="526" y="75" type="line"/>
      <point x="451" y="26"/>
      <point x="334" y="-15"/>
    </contour>
  </outline>
</glyph>
<glyph name="E" format="2">
  <advance width="614"/>
  <unicode hex="0045"/>
  <outline>
    <contour>
      <point x="31" y="0" type="line"/>
      <point x="219" y="655" type="line"/>
      <point x="657" y="655" type="line"/>
      <point x="636" y="583" type="line"/>
      <point x="285" y="583" type="line"/>
      <point x="223" y="367" type="line"/>
      <point x="520" y="367" type="line"/>
      <point x="499" y="295" type="line"/>
      <point x="203" y="295" type="line"/>
      <point x="139" y="72" type="line"/>
      <point x="496" y="72" type="line"/>
      <point x="475" y="0" type="line"/>
    </contour>
  </outline>
</glyph>
<glyph name="F" format="2">
  <advance width="614"/>
  <unicode hex="0046"/>
  <outline>
    <contour>
      <point x="34" y="0" type="line"/>
      <point x="222" y="655" type="line"/>
      <point x="654" y="655" type="line"/>
      <point x="633" y="583" type="line"/>
      <point x="288" y="583" type="line"/>
      <point x="217" y="335" type="line"/>
      <point x="528" y="335" type="line"/>
      <point x="508" y="263" type="line"/>
      <point x="196" y="263" type="line"/>
      <point x="121" y="0" type="line"/>
    </contour>
  </outline>
</glyph>
<glyph name="H" format="2">
  <advance width="614"/>
  <unicode hex="0048"/>
  <outline>
    <contour>
      <point x="26" y="0" type="line"/>
      <point x="213" y="655" type="line"/>
      <point x="300" y="655" type="line"/>
      <point x="217" y="367" type="line"/>
      <point x="473" y="367" type="line"/>
      <point x="556" y="655" type="line"/>
      <point x="643" y="655" type="line"/>
      <point x="455" y="0" type="line"/>
      <point x="368" y="0" type="line"/>
      <point x="452" y="294" type="line"/>
      <point x="196" y="294" type="line"/>
      <point x="112" y="0" type="line"/>
    </contour>
  </outline>
</glyph>
<glyph name="N" format="2">
  <advance width="614"/>
  <unicode hex="004E"/>
  <outline>
    <contour>
      <point x="258" y="555" type="line"/>
      <point x="104" y="0" type="line"/>
      <point x="23" y="0" type="line"/>
      <point x="211" y="655" type="line"/>
      <point x="316" y="655" type="line"/>
      <point x="414" y="110" type="line"/>
      <point x="565" y="655" type="line"/>
      <point x="645" y="655" type="line"/>
      <point x="458" y="0" type="line"/>
      <point x="358" y="0" type="line"/>
    </contour>
  </outline>
</glyph>
<glyph name="Q" format="2">
  <advance width="614"/>
  <unicode hex="0051"/>
  <outline>
    <contour>
      <point x="427" y="42" type="qcurve"/>
      <point x="516" y="-114" type="line"/>
      <point x="431" y="-155" type="line"/>
      <point x="361" y="6" type="line"/>
      <point x="338" y="-3"/>
      <point x="289" y="-12"/>
      <point x="263" y="-12" type="qcurve"/>
      <point x="164" y="-12"/>
      <point x="59" y="98"/>
      <point x="59" y="202" type="qcurve"/>
      <point x="59" y="244"/>
      <point x="70" y="323"/>
      <point x="82" y="365" type="qcurve"/>
      <point x="123" y="505"/>
      <point x="297" y="670"/>
      <point x="407" y="670" type="qcurve"/>
      <point x="506" y="670"/>
      <point x="611" y="558"/>
      <point x="611" y="453" type="qcurve"/>
      <point x="611" y="411"/>
      <point x="600" y="332"/>
      <point x="588" y="290" type="qcurve"/>
      <point x="564" y="209"/>
      <point x="482" y="81"/>
    </contour>
    <contour>
      <point x="148" y="201" type="qcurve"/>
      <point x="148" y="131"/>
      <point x="210" y="57"/>
      <point x="268" y="57" type="qcurve"/>
      <point x="285" y="57"/>
      <point x="319" y="64"/>
      <point x="336" y="71" type="qcurve"/>
      <point x="269" y="204" type="line"/>
      <point x="333" y="234" type="line"/>
      <point x="390" y="107" type="line"/>
      <point x="425" y="138"/>
      <point x="481" y="235"/>
      <point x="498" y="296" type="qcurve"/>
      <point x="510" y="337"/>
      <point x="522" y="418"/>
      <point x="522" y="454" type="qcurve"/>
      <point x="522" y="524"/>
      <point x="460" y="598"/>
      <point x="402" y="598" type="qcurve"/>
      <point x="326" y="598"/>
      <point x="204" y="471"/>
      <point x="172" y="359" type="qcurve"/>
      <point x="160" y="318"/>
      <point x="148" y="237"/>
    </contour>
  </outline>
</glyph>
<glyph name="S" format="2">
  <advance width="614"/>
  <unicode hex="0053"/>
  <outline>
    <contour>
      <point x="292" y="61" type="qcurve"/>
      <point x="365" y="61"/>
      <point x="444" y="119"/>
      <point x="444" y="173" type="qcurve"/>
      <point x="444" y="207"/>
      <point x="403" y="258"/>
      <point x="357" y="284" type="qcurve"/>
      <point x="279" y="327" type="line"/>
      <point x="219" y="360"/>
      <point x="166" y="436"/>
      <point x="166" y="489" type="qcurve"/>
      <point x="166" y="567"/>
      <point x="294" y="667"/>
      <point x="399" y="667" type="qcurve"/>
      <point x="454" y="667"/>
      <point x="555" y="648"/>
      <point x="624" y="624" type="qcurve"/>
      <point x="600" y="549" type="line"/>
      <point x="542" y="572"/>
      <point x="443" y="593"/>
      <point x="398" y="593" type="qcurve"/>
      <point x="329" y="593"/>
      <point x="254" y="541"/>
      <point x="254" y="495" type="qcurve"/>
      <point x="254" y="463"/>
      <point x="288" y="417"/>
      <point x="328" y="395" type="qcurve"/>
      <point x="406" y="351" type="line"/>
      <point x="476" y="311"/>
      <point x="532" y="239"/>
      <point x="532" y="180" type="qcurve"/>
      <point x="532" y="90"/>
      <point x="404" y="-13"/>
      <point x="293" y="-13" type="qcurve"/>
      <point x="226" y="-13"/>
      <point x="101" y="19"/>
      <point x="26" y="55" type="qcurve"/>
      <point x="57" y="128" type="line"/>
      <point x="131" y="93"/>
      <point x="242" y="61"/>
    </contour>
  </outline>
</glyph>
<glyph name="T" format="2">
  <advance width="614"/>
  <unicode hex="0054"/>
  <outline>
    <contour>
      <point x="361" y="583" type="line"/>
      <point x="148" y="583" type="line"/>
      <point x="169" y="655" type="line"/>
      <point x="681" y="655" type="line"/>
      <point x="660" y="583" type="line"/>
      <point x="448" y="583" type="line"/>
      <point x="281" y="0" type="line"/>
      <point x="194" y="0" type="line"/>
    </contour>
  </outline>
</glyph>
<glyph name="U" format="2">
  <advance width="614"/>
  <unicode hex="0055"/>
  <outline>
    <contour>
      <point x="279" y="62" type="qcurve"/>
      <point x="342" y="62"/>
      <point x="422" y="136"/>
      <point x="445" y="213" type="qcurve"/>
      <point x="572" y="655" type="line"/>
      <point x="658" y="655" type="line"/>
      <point x="528" y="206" type="line"/>
      <point x="495" y="91"/>
      <point x="371" y="-15"/>
      <point x="267" y="-15" type="qcurve"/>
      <point x="172" y="-15"/>
      <point x="69" y="77"/>
      <point x="69" y="164" type="qcurve"/>
      <point x="69" y="187"/>
      <point x="80" y="244"/>
      <point x="92" y="286" type="qcurve"/>
      <point x="199" y="655" type="line"/>
      <point x="286" y="655" type="line"/>
      <point x="172" y="261" type="line"/>
      <point x="163" y="230"/>
      <point x="155" y="185"/>
      <point x="155" y="168" type="qcurve"/>
      <point x="155" y="116"/>
      <point x="218" y="62"/>
    </contour>
  </outline>
</glyph>
<glyph name="W" format="2">
  <advance width="614"/>
  <unicode hex="0057"/>
  <outline>
    <contour>
      <point x="689" y="655" type="line"/>
      <point x="413" y="0" type="line"/>
      <point x="323" y="0" type="line"/>
      <point x="338" y="348" type="line"/>
      <point x="155" y="0" type="line"/>
      <point x="68" y="0" type="line"/>
      <point x="168" y="655" type="line"/>
      <point x="250" y="655" type="line"/>
      <point x="162" y="133" type="line"/>
      <point x="377" y="531" type="line"/>
      <point x="401" y="531" type="line"/>
      <point x="388" y="121" type="line"/>
      <point x="602" y="655" type="line"/>
    </contour>
  </outline>
</glyph>
<glyph name="X" format="2">
  <advance width="614"/>
  <unicode hex="0058"/>
  <outline>
    <contour>
      <point x="79" y="0" type="line"/>
      <point x="-20" y="0" type="line"/>
      <point x="288" y="343" type="line"/>
      <point x="181" y="655" type="line"/>
      <point x="274" y="655" type="line"/>
      <point x="351" y="403" type="line"/>
      <point x="565" y="655" type="line"/>
      <point x="670" y="655" type="line"/>
      <point x="380" y="332" type="line"/>
      <point x="501" y="0" type="line"/>
      <point x="403" y="0" type="line"/>
      <point x="317" y="272" type="line"/>
    </contour>
  </outline>
</glyph>
<glyph name="Y" format="2">
  <advance width="614"/>
  <unicode hex="0059"/>
  <outline>
    <contour>
      <point x="589" y="655" type="line"/>
      <point x="694" y="655" type="line"/>
      <point x="361" y="270" type="line"/>
      <point x="284" y="0" type="line"/>
      <point x="197" y="0" type="line"/>
      <point x="279" y="285" type="line"/>
      <point x="162" y="655" type="line"/>
      <point x="255" y="655" type="line"/>
      <point x="341" y="360" type="line"/>
    </contour>
  </outline>
</glyph>
<glyph name="backslash" format="2">
  <advance width="614"/>
  <unicode hex="005C"/>
  <outline>
    <contour>
      <point x="392" y="-100" type="line"/>
      <point x="194" y="755" type="line"/>
      <point x="274" y="755" type="line"/>
      <point x="473" y="-100" type="line"/>
    </contour>
  </outline>
</glyph>
<glyph name="bracketright" format="2">
  <advance width="614"/>
  <unicode hex="005D"/>
  <outline>
    <contour>
      <point x="476" y="715" type="line"/>
      <point x="229" y="715" type="line"/>
      <point x="250" y="787" type="line"/>
      <point x="584" y="787" type="line"/>
      <point x="320" y="-135" type="line"/>
      <point x="-15" y="-135" type="line"/>
      <point x="6" y="-63" type="line"/>
      <point x="254" y="-63" type="line"/>
    </contour>
  </outline>
</glyph>
<glyph name="asciicircum" format="2">
  <advance width="614"/>
  <unicode hex="005E"/>
  <outline>
    <contour>
      <point x="158" y="271" type="line"/>
      <point x="62" y="271" type="line"/>
      <point x="379" y="655" type="line"/>
      <point x="477" y="655" type="line"/>
      <point x="572" y="271" type="line"/>
      <point x="485" y="271" type="line"/>
      <point x="414" y="591" type="line"/>
    </contour>
  </outline>
</glyph>
<glyph name="underscore" format="2">
  <advance width="614"/>
  <unicode hex="005F"/>
  <outline>
    <contour>
      <point x="-19" y="-106" type="line"/>
      <point x="4" y="-26" type="line"/>
      <point x="462" y="-26" type="line"/>
      <point x="439" y="-106" type="line"/>
    </contour>
  </outline>
</glyph>
<glyph name="grave" format="2">
  <advance width="614"/>
  <unicode hex="0060"/>
  <outline>
    <contour>
      <point x="491" y="405" type="line"/>
      <point x="410" y="405" type="line"/>
      <point x="277" y="710" type="line"/>
      <point x="410" y="710" type="line"/>
    </contour>
  </outline>
</glyph>
<glyph name="a" format="2">
  <advance width="614"/>
  <unicode hex="0061"/>
  <outline>
    <contour>
      <point x="525" y="314" type="qcurve"/>
      <point x="458" y="126" type="line"/>
      <point x="454" y="115"/>
      <point x="450" y="99"/>
      <point x="450" y="92" type="qcurve"/>
      <point x="450" y="82"/>
      <point x="464" y="72"/>
      <point x="486" y="68" type="qcurve"/>
      <point x="526" y="62" type="line"/>
      <point x="506" y="-5" type="line"/>
      <point x="459" y="0" type="line"/>
      <point x="418" y="4"/>
      <point x="372" y="34"/>
      <point x="364" y="64" type="qcurve"/>
      <point x="358" y="64" type="line"/>
      <point x="295" y="26"/>
      <point x="194" y="-6"/>
      <point x="139" y="-6" type="qcurve"/>
      <point x="87" y="-6"/>
      <point x="32" y="43"/>
      <point x="32" y="89" type="qcurve"/>
      <point x="32" y="124"/>
      <point x="59" y="191"/>
      <point x="82" y="214" type="qcurve"/>
      <point x="108" y="240"/>
      <point x="198" y="265"/>
      <point x="287" y="273" type="qcurve"/>
      <point x="432" y="286" type="line"/>
      <point x="445" y="323"/>
      <point x="449" y="342"/>
      <point x="449" y="350" type="qcurve"/>
      <point x="449" y="378"/>
      <point x="397" y="403"/>
      <point x="340" y="403" type="qcurve"/>
      <point x="310" y="403"/>
      <point x="210" y="393"/>
      <point x="152" y="384" type="qcurve"/>
      <point x="172" y="456" type="line"/>
      <point x="228" y="465"/>
      <point x="319" y="473"/>
      <point x="364" y="473" type="qcurve"/>
      <point x="450" y="473"/>
      <point x="535" y="423"/>
      <point x="535" y="372" type="qcurve"/>
      <point x="535" y="359"/>
      <point x="530" y="330"/>
    </contour>
    <contour>
      <point x="121" y="104" type="qcurve"/>
      <point x="121" y="82"/>
      <point x="148" y="60"/>
      <point x="175" y="60" type="qcurve"/>
      <point x="220" y="60"/>
      <point x="326" y="99"/>
      <point x="381" y="137" type="qcurve"/>
      <point x="412" y="228" type="line"/>
      <point x="299" y="217" type="line"/>
      <point x="236" y="211"/>
      <point x="168" y="193"/>
      <point x="151" y="176" type="qcurve"/>
      <point x="136" y="161"/>
      <point x="121" y="126"/>
    </contour>
  </outline>
</glyph>
<glyph name="b" format="2">
  <advance width="614"/>
  <unicode hex="0062"/>
  <outline>
    <contour>
      <point x="230" y="710" type="line"/>
      <point x="316" y="710" type="line"/>
      <point x="223" y="389" type="line"/>
      <point x="273" y="434"/>
      <point x="358" y="475"/>
      <point x="404" y="475" type="qcurve"/>
      <point x="476" y="475"/>
      <point x="567" y="379"/>
      <point x="567" y="300" type="qcurve"/>
      <point x="567" y="166"/>
      <point x="380" y="-8"/>
      <point x="231" y="-8" type="qcurve"/>
      <point x="182" y="-8"/>
      <point x="78" y="16"/>
      <point x="36" y="37" type="qcurve"/>
    </contour>
    <contour>
      <point x="477" y="291" type="qcurve"/>
      <point x="477" y="342"/>
      <point x="423" y="403"/>
      <point x="379" y="403" type="qcurve"/>
      <point x="337" y="403"/>
      <point x="260" y="360"/>
      <point x="199" y="305" type="qcurve"/>
      <point x="134" y="81" type="line"/>
      <point x="157" y="72"/>
      <point x="207" y="63"/>
      <point x="234" y="63" type="qcurve"/>
      <point x="342" y="63"/>
      <point x="477" y="196"/>
    </contour>
  </outline>
</glyph>
<glyph name="c" format="2">
  <advance width="614"/>
  <unicode hex="0063"/>
  <outline>
    <contour>
      <point x="376" y="407" type="qcurve"/>
      <point x="333" y="407"/>
      <point x="253" y="373"/>
      <point x="222" y="342" type="qcurve"/>
      <point x="190" y="310"/>
      <point x="151" y="218"/>
      <point x="151" y="175" type="qcurve"/>
      <point x="151" y="121"/>
      <point x="215" y="58"/>
      <point x="270" y="58" type="qcurve"/>
      <point x="312" y="58"/>
      <point x="406" y="86"/>
      <point x="473" y="117" type="qcurve"/>
      <point x="502" y="49" type="line"/>
      <point x="435" y="15"/>
      <point x="319" y="-15"/>
      <point x="254" y="-15" type="qcurve"/>
      <point x="162" y="-15"/>
      <point x="58" y="81"/>
      <point x="58" y="166" type="qcurve"/>
      <point x="58" y="230"/>
      <point x="105" y="344"/>
      <point x="150" y="388" type="qcurve"/>
      <point x="194" y="432"/>
      <point x="306" y="480"/>
      <point x="366" y="480" type="qcurve"/>
      <point x="424" y="480"/>
      <point x="520" y="451"/>
      <point x="582" y="414" type="qcurve"/>
      <point x="542" y="345" type="line"/>
      <point x="483" y="380"/>
      <point x="411" y="407"/>
    </contour>
  </outline>
</glyph>
<glyph name="d" format="2">
  <advance width="614"/>
  <unicode hex="0064"/>
  <outline>
    <contour>
      <point x="456" y="0" type="line"/>
      <point x="389" y="0" type="line"/>
      <point x="398" y="82" type="line"/>
      <point x="347" y="35"/>
      <point x="256" y="-8"/>
      <point x="207" y="-8" type="qcurve"/>
      <point x="136" y="-8"/>
      <point x="48" y="88"/>
      <point x="48" y="167" type="qcurve"/>
      <point x="48" y="301"/>
      <point x="238" y="475"/>
      <point x="389" y="475" type="qcurve"/>
      <point x="419" y="475"/>
      <point x="475" y="467"/>
      <point x="502" y="458" type="qcurve"/>
      <point x="574" y="710" type="line"/>
      <point x="659" y="710" type="line"/>
    </contour>
    <contour>
      <point x="389" y="403" type="qcurve"/>
      <point x="277" y="403"/>
      <point x="138" y="270"/>
      <point x="138" y="175" type="qcurve"/>
      <point x="138" y="124"/>
      <point x="190" y="63"/>
      <point x="233" y="63" type="qcurve"/>
      <point x="276" y="63"/>
      <point x="356" y="107"/>
      <point x="416" y="161" type="qcurve"/>
      <point x="481" y="386" type="line"/>
      <point x="460" y="395"/>
      <point x="415" y="403"/>
    </contour>
  </outline>
</glyph>
<glyph name="e" format="2">
  <advance width="614"/>
  <unicode hex="0065"/>
  <outline>
    <contour>
      <point x="416" y="62" type="qcurve"/>
      <point x="395" y="-7" type="line"/>
      <point x="324" y="-7"/>
      <point x="220" y="2"/>
      <point x="184" y="12" type="qcurve"/>
      <point x="121" y="28"/>
      <point x="66" y="98"/>
      <point x="66" y="163" type="qcurve"/>
      <point x="66" y="224"/>
      <point x="121" y="342"/>
      <point x="170" y="388" type="qcurve"/>
      <point x="218" y="432"/>
      <point x="337" y="480"/>
      <point x="402" y="480" type="qcurve"/>
      <point x="481" y="480"/>
      <point x="572" y="413"/>
      <point x="572" y="355" type="qcurve"/>
      <point x="572" y="282"/>
      <point x="451" y="209"/>
      <point x="319" y="197" type="qcurve"/>
      <point x="153" y="183" type="line"/>
      <point x="153" y="180"/>
      <point x="153" y="174"/>
      <point x="153" y="171" type="qcurve"/>
      <point x="153" y="102"/>
      <point x="262" y="64"/>
    </contour>
    <contour>
      <point x="485" y="350" type="qcurve"/>
      <point x="485" y="377"/>
      <point x="437" y="411"/>
      <point x="397" y="411" type="qcurve"/>
      <point x="320" y="411"/>
      <point x="189" y="314"/>
      <point x="165" y="241" type="qcurve"/>
      <point x="317" y="256" type="line"/>
      <point x="402" y="265"/>
      <point x="485" y="311"/>
    </contour>
  </outline>
</glyph>
<glyph name="f" format="2">
  <advance width="614"/>
  <unicode hex="0066"/>
  <outline>
    <contour>
      <point x="274" y="388" type="line"/>
      <point x="117" y="388" type="line"/>
      <point x="137" y="460" type="line"/>
      <point x="294" y="460" type="line"/>
      <point x="311" y="520" type="line"/>
      <point x="340" y="624"/>
      <point x="442" y="703"/>
      <point x="557" y="711" type="qcurve"/>
      <point x="666" y="719" type="line"/>
      <point x="666" y="646" type="line"/>
      <point x="544" y="638" type="line"/>
      <point x="478" y="634"/>
      <point x="413" y="584"/>
      <point x="395" y="522" type="qcurve"/>
      <point x="377" y="460" type="line"/>
      <point x="573" y="460" type="line"/>
      <point x="553" y="388" type="line"/>
      <point x="359" y="388" type="line"/>
      <point x="247" y="0" type="line"/>
      <point x="162" y="0" type="line"/>
    </contour>
  </outline>
</glyph>
<glyph name="i" format="2">
  <advance width="614"/>
  <unicode hex="0069"/>
  <outline>
    <contour>
      <point x="496" y="677" type="qcurve"/>
      <point x="496" y="644"/>
      <point x="448" y="603"/>
      <point x="409" y="603" type="qcurve"/>
      <point x="376" y="603"/>
      <point x="340" y="631"/>
      <point x="340" y="657" type="qcurve"/>
      <point x="340" y="688"/>
      <point x="388" y="730"/>
      <point x="427" y="730" type="qcurve"/>
      <point x="460" y="730"/>
      <point x="496" y="703"/>
    </contour>
    <contour>
      <point x="47" y="0" type="line"/>
      <point x="68" y="72" type="line"/>
      <point x="225" y="72" type="line"/>
      <point x="335" y="393" type="line"/>
      <point x="180" y="393" type="line"/>
      <point x="201" y="465" type="line"/>
      <point x="445" y="465" type="line"/>
      <point x="310" y="72" type="line"/>
      <point x="485" y="72" type="line"/>
      <point x="465" y="0" type="line"/>
    </contour>
  </outline>
</glyph>
<glyph name="j" format="2">
  <advance width="614"/>
  <unicode hex="006A"/>
  <outline>
    <contour>
      <point x="555" y="677" type="qcurve"/>
      <point x="555" y="645"/>
      <point x="507" y="603"/>
      <point x="468" y="603" type="qcurve"/>
      <point x="435" y="603"/>
      <point x="399" y="631"/>
      <point x="399" y="657" type="qcurve"/>
      <point x="399" y="689"/>
      <point x="446" y="730"/>
      <point x="486" y="730" type="qcurve"/>
      <point x="519" y="730"/>
      <point x="555" y="703"/>
    </contour>
    <contour>
      <point x="488" y="465" type="line"/>
      <point x="359" y="17" type="line"/>
      <point x="336" y="-65"/>
      <point x="290" y="-152"/>
      <point x="259" y="-177" type="qcurve"/>
      <point x="227" y="-202"/>
      <point x="129" y="-228"/>
      <point x="46" y="-233" type="qcurve"/>
      <point x="-31" y="-238" type="line"/>
      <point x="-31" y="-164" type="line"/>
      <point x="45" y="-160" type="line"/>
      <point x="103" y="-157"/>
      <point x="180" y="-137"/>
      <point x="206" y="-114" type="qcurve"/>
      <point x="229" y="-93"/>
      <point x="262" y="-25"/>
      <point x="277" y="26" type="qcurve"/>
      <point x="382" y="393" type="line"/>
      <point x="169" y="393" type="line"/>
      <point x="190" y="465" type="line"/>
    </contour>
  </outline>
</glyph>
<glyph name="k" format="2">
  <advance width="614"/>
  <unicode hex="006B"/>
  <outline>
    <contour>
      <point x="248" y="710" type="line"/>
      <point x="333" y="710" type="line"/>
      <point x="203" y="254" type="line"/>
      <point x="496" y="465" type="line"/>
      <point x="616" y="465" type="line"/>
      <point x="616" y="463" type="line"/>
      <point x="291" y="236" type="line"/>
      <point x="486" y="2" type="line"/>
      <point x="486" y="0" type="line"/>
      <point x="378" y="0" type="line"/>
      <point x="195" y="229" type="line"/>
      <point x="130" y="0" type="line"/>
      <point x="44" y="0" type="line"/>
    </contour>
  </outline>
</glyph>
<glyph name="o" format="2">
  <advance width="614"/>
  <unicode hex="006F"/>
  <outline>
    <contour>
      <point x="52" y="188" type="qcurve"/>
      <point x="52" y="247"/>
      <point x="99" y="354"/>
      <point x="140" y="394" type="qcurve"/>
      <point x="181" y="433"/>
      <point x="292" y="480"/>
      <point x="356" y="480" type="qcurve"/>
      <point x="448" y="480"/>
      <point x="562" y="367"/>
      <point x="562" y="277" type="qcurve"/>
      <point x="562" y="218"/>
      <point x="515" y="111"/>
      <point x="475" y="72" type="qcurve"/>
      <point x="434" y="32"/>
      <point x="322" y="-15"/>
      <point x="258" y="-15" type="qcurve"/>
      <point x="166" y="-15"/>
      <point x="52" y="98"/>
    </contour>
    <contour>
      <point x="140" y="190" type="qcurve"/>
      <point x="140" y="131"/>
      <point x="213" y="56"/>
      <point x="270" y="56" type="qcurve"/>
      <point x="352" y="56"/>
      <point x="474" y="188"/>
      <point x="474" y="276" type="qcurve"/>
      <point x="474" y="334"/>
      <point x="401" y="410"/>
      <point x="345" y="410" type="qcurve"/>
      <point x="263" y="410"/>
      <point x="140" y="277"/>
    </contour>
  </outline>
</glyph>
<glyph name="p" format="2">
  <advance width="614"/>
  <unicode hex="0070"/>
  <outline>
    <contour>
      <point x="45" y="-230" type="line"/>
      <point x="-41" y="-230" type="line"/>
      <point x="159" y="465" type="line"/>
      <point x="226" y="465" type="line"/>
      <point x="215" y="384" type="line"/>
      <point x="267" y="432"/>
      <point x="355" y="475"/>
      <point x="402" y="475" type="qcurve"/>
      <point x="477" y="475"/>
      <point x="566" y="381"/>
      <point x="566" y="300" type="qcurve"/>
      <point x="566" y="167"/>
      <point x="377" y="-8"/>
      <point x="228" y="-8" type="qcurve"/>
      <point x="197" y="-8"/>
      <point x="140" y="1"/>
      <point x="114" y="9" type="qcurve"/>
    </contour>
    <contour>
      <point x="476" y="291" type="qcurve"/>
      <point x="476" y="342"/>
      <point x="421" y="403"/>
      <point x="376" y="403" type="qcurve"/>
      <point x="336" y="403"/>
      <point x="259" y="360"/>
      <point x="199" y="307" type="qcurve"/>
      <point x="135" y="82" type="line"/>
      <point x="155" y="73"/>
      <point x="203" y="63"/>
      <point x="230" y="63" type="qcurve"/>
      <point x="339" y="63"/>
      <point x="476" y="196"/>
    </contour>
  </outline>
</glyph>
<glyph name="q" format="2">
  <advance width="614"/>
  <unicode hex="0071"/>
  <outline>
    <contour>
      <point x="390" y="-230" type="line"/>
      <point x="304" y="-230" type="line"/>
      <point x="392" y="77" type="line"/>
      <point x="342" y="32"/>
      <point x="255" y="-8"/>
      <point x="207" y="-8" type="qcurve"/>
      <point x="137" y="-8"/>
      <point x="49" y="88"/>
      <point x="49" y="167" type="qcurve"/>
      <point x="49" y="301"/>
      <point x="239" y="475"/>
      <point x="390" y="475" type="qcurve"/>
      <point x="437" y="475"/>
      <point x="531" y="452"/>
      <point x="579" y="429" type="qcurve"/>
    </contour>
    <contour>
      <point x="390" y="403" type="qcurve"/>
      <point x="278" y="403"/>
      <point x="138" y="270"/>
      <point x="138" y="175" type="qcurve"/>
      <point x="138" y="124"/>
      <point x="190" y="63"/>
      <point x="233" y="63" type="qcurve"/>
      <point x="277" y="63"/>
      <point x="357" y="107"/>
      <point x="416" y="160" type="qcurve"/>
      <point x="481" y="386" type="line"/>
      <point x="460" y="395"/>
      <point x="415" y="403"/>
    </contour>
  </outline>
</glyph>
<glyph name="y" format="2">
  <advance width="614"/>
  <unicode hex="0079"/>
  <outline>
    <contour>
      <point x="623" y="465" type="line"/>
      <point x="206" y="-133" type="line"/>
      <point x="161" y="-198"/>
      <point x="102" y="-227"/>
      <point x="26" y="-230" type="qcurve"/>
      <point x="-82" y="-234" type="line"/>
      <point x="-83" y="-162" type="line"/>
      <point x="21" y="-157" type="line"/>
      <point x="71" y="-155"/>
      <point x="108" y="-134"/>
      <point x="140" y="-90" type="qcurve"/>
      <point x="193" y="-15" type="line"/>
      <point x="120" y="465" type="line"/>
      <point x="206" y="465" type="line"/>
      <point x="257" y="73" type="line"/>
      <point x="522" y="465" type="line"/>
    </contour>
  </outline>
</glyph>
<glyph name="z" format="2">
  <advance width="614"/>
  <unicode hex="007A"/>
  <outline>
    <contour>
      <point x="471" y="0" type="line"/>
      <point x="35" y="0" type="line"/>
      <point x="35" y="41" type="line"/>
      <point x="436" y="392" type="line"/>
      <point x="436" y="396" type="line"/>
      <point x="137" y="396" type="line"/>
      <point x="157" y="465" type="line"/>
      <point x="574" y="465" type="line"/>
      <point x="574" y="424" type="line"/>
      <point x="177" y="72" type="line"/>
      <point x="177" y="70" type="line"/>
      <point x="491" y="70" type="line"/>
    </contour>
  </outline>
</glyph>
<glyph name="cent" format="2">
  <advance width="614"/>
  <unicode hex="00A2"/>
  <outline>
    <contour>
      <point x="238" y="-142" type="line"/>
      <point x="171" y="-142" type="line"/>
      <point x="221" y="3" type="line"/>
      <point x="146" y="12"/>
      <point x="63" y="105"/>
      <point x="63" y="179" type="qcurve"/>
      <point x="63" y="241"/>
      <point x="110" y="354"/>
      <point x="154" y="398" type="qcurve"/>
      <point x="198" y="442"/>
      <point x="311" y="490"/>
      <point x="372" y="490" type="qcurve"/>
      <point x="376" y="490"/>
      <point x="384" y="490"/>
      <point x="388" y="490" type="qcurve"/>
      <point x="438" y="632" type="line"/>
      <point x="506" y="632" type="line"/>
      <point x="454" y="482" type="line"/>
      <point x="485" y="475"/>
      <point x="549" y="448"/>
      <point x="588" y="424" type="qcurve"/>
      <point x="547" y="356" type="line"/>
      <point x="505" y="381"/>
      <point x="447" y="408"/>
      <point x="423" y="414" type="qcurve"/>
      <point x="306" y="74" type="line"/>
      <point x="338" y="77"/>
      <point x="420" y="104"/>
      <point x="480" y="131" type="qcurve"/>
      <point x="509" y="64" type="line"/>
      <point x="449" y="34"/>
      <point x="344" y="4"/>
      <point x="288" y="1" type="qcurve"/>
    </contour>
    <contour>
      <point x="227" y="353" type="qcurve"/>
      <point x="195" y="320"/>
      <point x="157" y="230"/>
      <point x="157" y="188" type="qcurve"/>
      <point x="157" y="141"/>
      <point x="209" y="80"/>
      <point x="254" y="74" type="qcurve"/>
      <point x="372" y="418" type="line"/>
      <point x="332" y="416"/>
      <point x="257" y="382"/>
    </contour>
  </outline>
</glyph>
<glyph name="section" format="2">
  <advance width="614"/>
  <unicode hex="00A7"/>
  <outline>
    <contour>
      <point x="43" y="187" type="qcurve"/>
      <point x="43" y="230"/>
      <point x="81" y="286"/>
      <point x="125" y="316" type="qcurve"/>
      <point x="150" y="333"/>
      <point x="221" y="371"/>
      <point x="268" y="393" type="qcurve"/>
      <point x="223" y="423"/>
      <point x="186" y="480"/>
      <point x="186" y="521" type="qcurve"/>
      <point x="186" y="592"/>
      <point x="305" y="669"/>
      <point x="417" y="669" type="qcurve"/>
      <point x="465" y="669"/>
      <point x="567" y="656"/>
      <point x="620" y="643" type="qcurve"/>
      <point x="600" y="570" type="line"/>
      <point x="550" y="584"/>
      <point x="460" y="597"/>
      <point x="416" y="597" type="qcurve"/>
      <point x="342" y="597"/>
      <point x="272" y="564"/>
      <point x="272" y="528" type="qcurve"/>
      <point x="272" y="504"/>
      <point x="305" y="469"/>
      <point x="351" y="441" type="qcurve"/>
      <point x="439" y="388" type="line"/>
      <point x="507" y="346"/>
      <point x="559" y="285"/>
      <point x="559" y="242" type="qcurve"/>
      <point x="559" y="199"/>
      <point x="521" y="143"/>
      <point x="477" y="113" type="qcurve"/>
      <point x="452" y="96"/>
      <point x="381" y="58"/>
      <point x="334" y="36" type="qcurve"/>
      <point x="379" y="6"/>
      <point x="415" y="-51"/>
      <point x="415" y="-92" type="qcurve"/>
      <point x="415" y="-164"/>
      <point x="297" y="-240"/>
      <point x="184" y="-240" type="qcurve"/>
      <point x="134" y="-240"/>
      <point x="32" y="-227"/>
      <point x="-19" y="-214" type="qcurve"/>
      <point x="2" y="-141" type="line"/>
      <point x="51" y="-155"/>
      <point x="140" y="-168"/>
      <point x="185" y="-168" type="qcurve"/>
      <point x="260" y="-168"/>
      <point x="329" y="-136"/>
      <point x="329" y="-99" type="qcurve"/>
      <point x="329" y="-75"/>
      <point x="297" y="-40"/>
      <point x="251" y="-12" type="qcurve"/>
      <point x="163" y="41" type="line"/>
      <point x="94" y="84"/>
      <point x="43" y="144"/>
    </contour>
    <contour>
      <point x="130" y="201" type="qcurve"/>
      <point x="130" y="175"/>
      <point x="171" y="136"/>
      <point x="237" y="96" type="qcurve"/>
      <point x="274" y="73" type="line"/>
      <point x="312" y="92"/>
      <point x="368" y="123"/>
      <point x="389" y="135" type="qcurve"/>
      <point x="435" y="162"/>
      <point x="471" y="201"/>
      <point x="471" y="228" type="qcurve"/>
      <point x="471" y="254"/>
      <point x="430" y="293"/>
      <point x="365" y="333" type="qcurve"/>
      <point x="328" y="356" type="line"/>
      <point x="290" y="337"/>
      <point x="233" y="306"/>
      <point x="212" y="294" type="qcurve"/>
      <point x="166" y="267"/>
      <point x="130" y="228"/>
    </contour>
  </outline>
</glyph>
<glyph name="guillemetleft" format="2">
  <advance width="614"/>
  <unicode hex="00AB"/>
  <outline>
    <contour>
      <point x="245" y="57" type="line"/>
      <point x="224" y="-15" type="line"/>
      <point x="52" y="196" type="line"/>
      <point x="72" y="267" type="line"/>
      <point x="366" y="478" type="line"/>
      <point x="339" y="384" type="line"/>
      <point x="137" y="224" type="line"/>
    </contour>
    <contour>
      <point x="487" y="57" type="line"/>
      <point x="466" y="-15" type="line"/>
      <point x="294" y="176" type="line"/>
      <point x="313" y="247" type="line"/>
      <point x="608" y="478" type="line"/>
      <point x="581" y="384" type="line"/>
      <point x="379" y="206" type="line"/>
    </contour>
  </outline>
</glyph>
<glyph name="registered" format="2">
  <advance width="614"/>
  <unicode hex="00AE"/>
  <outline>
    <contour>
      <point x="626" y="537" type="qcurve"/>
      <point x="626" y="476"/>
      <point x="582" y="356"/>
      <point x="542" y="310" type="qcurve"/>
      <point x="499" y="260"/>
      <point x="388" y="208"/>
      <point x="324" y="208" type="qcurve"/>
      <point x="228" y="208"/>
      <point x="122" y="307"/>
      <point x="122" y="396" type="qcurve"/>
      <point x="122" y="457"/>
      <point x="166" y="577"/>
      <point x="206" y="623" type="qcurve"/>
      <point x="248" y="673"/>
      <point x="359" y="725"/>
      <point x="423" y="725" type="qcurve"/>
      <point x="519" y="725"/>
      <point x="626" y="626"/>
    </contour>
    <contour>
      <point x="586" y="535" type="qcurve"/>
      <point x="586" y="609"/>
      <point x="501" y="689"/>
      <point x="422" y="689" type="qcurve"/>
      <point x="368" y="689"/>
      <point x="273" y="641"/>
      <point x="236" y="596" type="qcurve"/>
      <point x="201" y="555"/>
      <point x="163" y="450"/>
      <point x="163" y="398" type="qcurve"/>
      <point x="163" y="323"/>
      <point x="246" y="243"/>
      <point x="323" y="243" type="qcurve"/>
      <point x="377" y="243"/>
      <point x="474" y="291"/>
      <point x="512" y="335" type="qcurve"/>
      <point x="547" y="377"/>
      <point x="586" y="483"/>
    </contour>
    <contour>
      <point x="431" y="409" type="qcurve"/>
      <point x="467" y="345" type="line"/>
      <point x="467" y="343" type="line"/>
      <point x="410" y="343" type="line"/>
      <point x="375" y="410" type="line"/>
      <point x="362" y="433"/>
      <point x="344" y="448"/>
      <point x="326" y="449" type="qcurve"/>
      <point x="296" y="343" type="line"/>
      <point x="248" y="343" type="line"/>
      <point x="323" y="604" type="line"/>
      <point x="430" y="604" type="line"/>
      <point x="467" y="604"/>
      <point x="509" y="571"/>
      <point x="509" y="542" type="qcurve"/>
      <point x="509" y="502"/>
      <point x="451" y="460"/>
      <point x="392" y="456" type="qcurve"/>
      <point x="392" y="453" type="line"/>
      <point x="404" y="446"/>
      <point x="421" y="427"/>
    </contour>
    <contour>
      <point x="458" y="534" type="qcurve"/>
      <point x="458" y="548"/>
      <point x="437" y="563"/>
      <point x="417" y="563" type="qcurve"/>
      <point x="359" y="563" type="line"/>
      <point x="336" y="482" type="line"/>
      <point x="365" y="484" type="line"/>
      <point x="411" y="485"/>
      <point x="458" y="511"/>
    </contour>
  </outline>
</glyph>
<glyph name="plusminus" format="2">
  <advance width="614"/>
  <unicode hex="00B1"/>
  <outline>
    <contour>
      <point x="314" y="400" type="line"/>
      <point x="118" y="400" type="line"/>
      <point x="138" y="471" type="line"/>
      <point x="334" y="471" type="line"/>
      <point x="387" y="655" type="line"/>
      <point x="468" y="655" type="line"/>
      <point x="415" y="471" type="line"/>
      <point x="613" y="471" type="line"/>
      <point x="592" y="400" type="line"/>
      <point x="395" y="400" type="line"/>
      <point x="342" y="214" type="line"/>
      <point x="261" y="214" type="line"/>
    </contour>
    <contour>
      <point x="498" y="71" type="line"/>
      <point x="477" y="0" type="line"/>
      <point x="3" y="0" type="line"/>
      <point x="24" y="71" type="line"/>
    </contour>
  </outline>
</glyph>
<glyph name="paragraph" format="2">
  <advance width="614"/>
  <unicode hex="00B6"/>
  <outline>
    <contour>
      <point x="436" y="604" type="line"/>
      <point x="344" y="285" type="line"/>
      <point x="340" y="285" type="line"/>
      <point x="241" y="285"/>
      <point x="139" y="360"/>
      <point x="139" y="432" type="qcurve"/>
      <point x="139" y="545"/>
      <point x="294" y="670"/>
      <point x="438" y="670" type="qcurve"/>
      <point x="644" y="670" type="line"/>
      <point x="452" y="0" type="line"/>
      <point x="367" y="0" type="line"/>
      <point x="540" y="604" type="line"/>
    </contour>
  </outline>
</glyph>
<glyph name="questiondown" format="2">
  <advance width="614"/>
  <unicode hex="00BF"/>
  <outline>
    <contour>
      <point x="580" y="675" type="qcurve"/>
      <point x="580" y="639"/>
      <point x="530" y="596"/>
      <point x="485" y="596" type="qcurve"/>
      <point x="450" y="596"/>
      <point x="413" y="622"/>
      <point x="413" y="646" type="qcurve"/>
      <point x="413" y="682"/>
      <point x="463" y="725"/>
      <point x="508" y="725" type="qcurve"/>
      <point x="543" y="725"/>
      <point x="580" y="699"/>
    </contour>
    <contour>
      <point x="417" y="468" type="qcurve"/>
      <point x="472" y="468" type="line"/>
      <point x="467" y="426"/>
      <point x="461" y="379"/>
      <point x="457" y="367" type="qcurve"/>
      <point x="452" y="348"/>
      <point x="425" y="327"/>
      <point x="391" y="313" type="qcurve"/>
      <point x="276" y="269" type="line"/>
      <point x="208" y="242"/>
      <point x="149" y="184"/>
      <point x="149" y="140" type="qcurve"/>
      <point x="149" y="100"/>
      <point x="200" y="57"/>
      <point x="246" y="57" type="qcurve"/>
      <point x="291" y="57"/>
      <point x="394" y="94"/>
      <point x="492" y="144" type="qcurve"/>
      <point x="521" y="78" type="line"/>
      <point x="424" y="26"/>
      <point x="298" y="-15"/>
      <point x="230" y="-15" type="qcurve"/>
      <point x="151" y="-15"/>
      <point x="57" y="63"/>
      <point x="57" y="129" type="qcurve"/>
      <point x="57" y="202"/>
      <point x="143" y="295"/>
      <point x="245" y="335" type="qcurve"/>
      <point x="350" y="377" type="line"/>
      <point x="375" y="386"/>
      <point x="397" y="417"/>
    </contour>
  </outline>
</glyph>
<glyph name="Aring" format="2">
  <advance width="614"/>
  <unicode hex="00C5"/>
  <outline>
    <contour>
      <point x="174" y="178" type="line"/>
      <point x="67" y="0" type="line"/>
      <point x="-26" y="0" type="line"/>
      <point x="344" y="605" type="line"/>
      <point x="314" y="618"/>
      <point x="283" y="663"/>
      <point x="283" y="692" type="qcurve"/>
      <point x="283" y="753"/>
      <point x="376" y="829"/>
      <point x="457" y="829" type="qcurve"/>
      <point x="523" y="829"/>
      <point x="602" y="773"/>
      <point x="602" y="726" type="qcurve"/>
      <point x="602" y="677"/>
      <point x="539" y="607"/>
      <point x="484" y="595" type="qcurve"/>
      <point x="508" y="0" type="line"/>
      <point x="423" y="0" type="line"/>
      <point x="417" y="178" type="line"/>
    </contour>
    <contour>
      <point x="538" y="723" type="qcurve"/>
      <point x="538" y="748"/>
      <point x="491" y="775"/>
      <point x="448" y="775" type="qcurve"/>
      <point x="403" y="775"/>
      <point x="348" y="730"/>
      <point x="348" y="695" type="qcurve"/>
      <point x="348" y="670"/>
      <point x="394" y="644"/>
      <point x="438" y="644" type="qcurve"/>
      <point x="483" y="644"/>
      <point x="538" y="689"/>
    </contour>
    <contour>
      <point x="407" y="570" type="line"/>
      <point x="215" y="248" type="line"/>
      <point x="417" y="248" type="line"/>
    </contour>
  </outline>
</glyph>
<glyph name="Ccedilla" format="2">
  <advance width="614"/>
  <unicode hex="00C7"/>
  <outline>
    <contour>
      <point x="381" y="-148" type="qcurve"/>
      <point x="381" y="-191"/>
      <point x="326" y="-232"/>
      <point x="261" y="-247" type="qcurve"/>
      <point x="229" y="-254"/>
      <point x="144" y="-265"/>
      <point x="90" y="-270" type="qcurve"/>
      <point x="90" y="-216" type="line"/>
      <point x="128" y="-213"/>
      <point x="186" y="-206"/>
      <point x="209" y="-203" type="qcurve"/>
      <point x="263" y="-195"/>
      <point x="307" y="-176"/>
      <point x="307" y="-155" type="qcurve"/>
      <point x="307" y="-137"/>
      <point x="251" y="-119"/>
      <point x="179" y="-112" type="qcurve"/>
      <point x="176" y="-102" type="line"/>
      <point x="233" y="-13" type="line"/>
      <point x="150" y="-2"/>
      <point x="66" y="106"/>
      <point x="66" y="201" type="qcurve"/>
      <point x="66" y="286"/>
      <point x="118" y="450"/>
      <point x="165" y="516" type="qcurve"/>
      <point x="219" y="590"/>
      <point x="365" y="670"/>
      <point x="448" y="670" type="qcurve"/>
      <point x="511" y="670"/>
      <point x="604" y="630"/>
      <point x="659" y="581" type="qcurve"/>
      <point x="608" y="518" type="line"/>
      <point x="560" y="562"/>
      <point x="489" y="598"/>
      <point x="443" y="598" type="qcurve"/>
      <point x="384" y="598"/>
      <point x="278" y="533"/>
      <point x="239" y="479" type="qcurve"/>
      <point x="201" y="425"/>
      <point x="156" y="282"/>
      <point x="156" y="204" type="qcurve"/>
      <point x="156" y="135"/>
      <point x="220" y="57"/>
      <point x="275" y="57" type="qcurve"/>
      <point x="318" y="57"/>
      <point x="413" y="94"/>
      <point x="486" y="138" type="qcurve"/>
      <point x="526" y="75" type="line"/>
      <point x="454" y="28"/>
      <point x="341" y="-13"/>
      <point x="281" y="-15" type="qcurve"/>
      <point x="251" y="-65" type="line"/>
      <point x="323" y="-76"/>
      <point x="381" y="-112"/>
    </contour>
  </outline>
</glyph>
<glyph name="multiply" format="2">
  <advance width="614"/>
  <unicode hex="00D7"/>
  <outline>
    <contour>
      <point x="324" y="277" type="line"/>
      <point x="109" y="108" type="line"/>
      <point x="67" y="167" type="line"/>
      <point x="284" y="333" type="line"/>
      <point x="161" y="501" type="line"/>
      <point x="226" y="548" type="line"/>
      <point x="343" y="380" type="line"/>
      <point x="556" y="548" type="line"/>
      <point x="601" y="490" type="line"/>
      <point x="384" y="323" type="line"/>
      <point x="510" y="151" type="line"/>
      <point x="447" y="103" type="line"/>
    </contour>
  </outline>
</glyph>
<glyph name="Oslash" format="2">
  <advance width="614"/>
  <unicode hex="00D8"/>
  <outline>
    <contour>
      <point x="82" y="365" type="qcurve"/>
      <point x="123" y="505"/>
      <point x="297" y="670"/>
      <point x="407" y="670" type="qcurve"/>
      <point x="450" y="670"/>
      <point x="523" y="644"/>
      <point x="550" y="618" type="qcurve"/>
      <point x="639" y="726" type="line"/>
      <point x="725" y="726" type="line"/>
      <point x="584" y="574" type="line"/>
      <point x="597" y="549"/>
      <point x="611" y="488"/>
      <point x="611" y="453" type="qcurve"/>
      <point x="611" y="411"/>
      <point x="600" y="332"/>
      <point x="588" y="290" type="qcurve"/>
      <point x="547" y="150"/>
      <point x="373" y="-15"/>
      <point x="263" y="-15" type="qcurve"/>
      <point x="220" y="-15"/>
      <point x="147" y="12"/>
      <point x="120" y="38" type="qcurve"/>
      <point x="29" y="-71" type="line"/>
      <point x="-56" y="-71" type="line"/>
      <point x="86" y="83" type="line"/>
      <point x="73" y="108"/>
      <point x="59" y="168"/>
      <point x="59" y="202" type="qcurve"/>
      <point x="59" y="244"/>
      <point x="70" y="323"/>
    </contour>
    <contour>
      <point x="172" y="359" type="qcurve"/>
      <point x="160" y="318"/>
      <point x="148" y="237"/>
      <point x="148" y="201" type="qcurve"/>
      <point x="148" y="191"/>
      <point x="150" y="168"/>
      <point x="152" y="153" type="qcurve"/>
      <point x="496" y="555" type="line"/>
      <point x="481" y="576"/>
      <point x="433" y="598"/>
      <point x="402" y="598" type="qcurve"/>
      <point x="326" y="598"/>
      <point x="204" y="471"/>
    </contour>
    <contour>
      <point x="268" y="57" type="qcurve"/>
      <point x="344" y="57"/>
      <point x="466" y="184"/>
      <point x="498" y="296" type="qcurve"/>
      <point x="510" y="337"/>
      <point x="522" y="418"/>
      <point x="522" y="454" type="qcurve"/>
      <point x="522" y="467"/>
      <point x="520" y="491"/>
      <point x="517" y="504" type="qcurve"/>
      <point x="174" y="101" type="line"/>
      <point x="188" y="79"/>
      <point x="236" y="57"/>
    </contour>
  </outline>
</glyph>
<glyph name="germandbls" format="2">
  <advance width="614"/>
  <unicode hex="00DF"/>
  <outline>
    <contour>
      <point x="267" y="68" type="line"/>
      <point x="353" y="75" type="line"/>
      <point x="403" y="79"/>
      <point x="453" y="126"/>
      <point x="453" y="170" type="qcurve"/>
      <point x="453" y="200"/>
      <point x="400" y="280"/>
      <point x="340" y="343" type="qcurve"/>
      <point x="350" y="378" type="line"/>
      <point x="387" y="407"/>
      <point x="441" y="452"/>
      <point x="460" y="469" type="qcurve"/>
      <point x="501" y="506"/>
      <point x="532" y="555"/>
      <point x="532" y="587" type="qcurve"/>
      <point x="532" y="618"/>
      <point x="486" y="653"/>
      <point x="444" y="653" type="qcurve"/>
      <point x="373" y="653"/>
      <point x="272" y="565"/>
      <point x="249" y="485" type="qcurve"/>
      <point x="110" y="0" type="line"/>
      <point x="25" y="0" type="line"/>
      <point x="166" y="494" type="line"/>
      <point x="199" y="610"/>
      <point x="340" y="725"/>
      <point x="448" y="725" type="qcurve"/>
      <point x="530" y="725"/>
      <point x="622" y="655"/>
      <point x="622" y="595" type="qcurve"/>
      <point x="622" y="550"/>
      <point x="575" y="473"/>
      <point x="519" y="424" type="qcurve"/>
      <point x="501" y="409"/>
      <point x="458" y="374"/>
      <point x="433" y="355" type="qcurve"/>
      <point x="491" y="293"/>
      <point x="542" y="207"/>
      <point x="542" y="168" type="qcurve"/>
      <point x="542" y="88"/>
      <point x="445" y="6"/>
      <point x="345" y="0" type="qcurve"/>
      <point x="267" y="-5" type="line"/>
    </contour>
  </outline>
</glyph>
<glyph name="ccedilla" format="2">
  <advance width="614"/>
  <unicode hex="00E7"/>
  <outline>
    <contour>
      <point x="376" y="407" type="qcurve"/>
      <point x="333" y="407"/>
      <point x="253" y="373"/>
      <point x="222" y="342" type="qcurve"/>
      <point x="190" y="310"/>
      <point x="151" y="218"/>
      <point x="151" y="175" type="qcurve"/>
      <point x="151" y="121"/>
      <point x="215" y="58"/>
      <point x="270" y="58" type="qcurve"/>
      <point x="312" y="58"/>
      <point x="406" y="86"/>
      <point x="473" y="117" type="qcurve"/>
      <point x="502" y="49" type="line"/>
      <point x="435" y="15"/>
      <point x="320" y="-15"/>
      <point x="256" y="-15" type="qcurve"/>
      <point x="226" y="-65" type="line"/>
      <point x="298" y="-76"/>
      <point x="356" y="-112"/>
      <point x="356" y="-148" type="qcurve"/>
      <point x="356" y="-191"/>
      <point x="301" y="-232"/>
      <point x="236" y="-247" type="qcurve"/>
      <point x="204" y="-254"/>
      <point x="119" y="-265"/>
      <point x="65" y="-270" type="qcurve"/>
      <point x="65" y="-216" type="line"/>
      <point x="103" y="-213"/>
      <point x="161" y="-206"/>
      <point x="184" y="-203" type="qcurve"/>
      <point x="238" y="-195"/>
      <point x="282" y="-176"/>
      <point x="282" y="-155" type="qcurve"/>
      <point x="282" y="-137"/>
      <point x="226" y="-119"/>
      <point x="154" y="-112" type="qcurve"/>
      <point x="151" y="-102" type="line"/>
      <point x="209" y="-12" type="line"/>
      <point x="137" y="-1"/>
      <point x="58" y="92"/>
      <point x="58" y="166" type="qcurve"/>
      <point x="58" y="230"/>
      <point x="105" y="344"/>
      <point x="150" y="388" type="qcurve"/>
      <point x="194" y="432"/>
      <point x="306" y="480"/>
      <point x="366" y="480" type="qcurve"/>
      <point x="424" y="480"/>
      <point x="520" y="451"/>
      <point x="582" y="414" type="qcurve"/>
      <point x="542" y="345" type="line"/>
      <point x="483" y="380"/>
      <point x="411" y="407"/>
    </contour>
  </outline>
</glyph>
<glyph name="eth" format="2">
  <advance width="614"/>
  <unicode hex="00F0"/>
  <outline>
    <contour>
      <point x="470" y="668" type="qcurve"/>
      <point x="575" y="748" type="line"/>
      <point x="607" y="707" type="line"/>
      <point x="509" y="635" type="line"/>
      <point x="549" y="596"/>
      <point x="590" y="491"/>
      <point x="590" y="430" type="qcurve"/>
      <point x="590" y="328"/>
      <point x="521" y="138"/>
      <point x="461" y="78" type="qcurve"/>
      <point x="415" y="33"/>
      <point x="304" y="-15"/>
      <point x="245" y="-15" type="qcurve"/>
      <point x="152" y="-15"/>
      <point x="47" y="76"/>
      <point x="47" y="157" type="qcurve"/>
      <point x="47" y="271"/>
      <point x="200" y="424"/>
      <point x="324" y="424" type="qcurve"/>
      <point x="374" y="424"/>
      <point x="456" y="400"/>
      <point x="501" y="374" type="qcurve"/>
      <point x="504" y="395"/>
      <point x="506" y="427"/>
      <point x="506" y="440" type="qcurve"/>
      <point x="506" y="484"/>
      <point x="477" y="557"/>
      <point x="449" y="585" type="qcurve"/>
      <point x="310" y="480" type="line"/>
      <point x="278" y="522" type="line"/>
      <point x="409" y="617" type="line"/>
      <point x="384" y="633"/>
      <point x="326" y="657"/>
      <point x="293" y="664" type="qcurve"/>
      <point x="329" y="725" type="line"/>
      <point x="369" y="717"/>
      <point x="440" y="688"/>
    </contour>
    <contour>
      <point x="340" y="357" type="qcurve"/>
      <point x="252" y="357"/>
      <point x="137" y="244"/>
      <point x="137" y="162" type="qcurve"/>
      <point x="137" y="113"/>
      <point x="196" y="57"/>
      <point x="247" y="57" type="qcurve"/>
      <point x="284" y="57"/>
      <point x="357" y="90"/>
      <point x="388" y="121" type="qcurve"/>
      <point x="420" y="153"/>
      <point x="471" y="251"/>
      <point x="487" y="311" type="qcurve"/>
      <point x="448" y="335"/>
      <point x="381" y="357"/>
    </contour>
  </outline>
</glyph>
<glyph name="divide" format="2">
  <advance width="614"/>
  <unicode hex="00F7"/>
  <outline>
    <contour>
      <point x="467" y="548" type="qcurve"/>
      <point x="467" y="514"/>
      <point x="422" y="472"/>
      <point x="384" y="472" type="qcurve"/>
      <point x="353" y="472"/>
      <point x="322" y="494"/>
      <point x="322" y="515" type="qcurve"/>
      <point x="322" y="549"/>
      <point x="368" y="592"/>
      <point x="406" y="592" type="qcurve"/>
      <point x="436" y="592"/>
      <point x="467" y="570"/>
    </contour>
    <contour>
      <point x="561" y="292" type="line"/>
      <point x="87" y="292" type="line"/>
      <point x="107" y="363" type="line"/>
      <point x="582" y="363" type="line"/>
    </contour>
    <contour>
      <point x="348" y="140" type="qcurve"/>
      <point x="348" y="106"/>
      <point x="303" y="63"/>
      <point x="265" y="63" type="qcurve"/>
      <point x="234" y="63"/>
      <point x="203" y="85"/>
      <point x="203" y="107" type="qcurve"/>
      <point x="203" y="141"/>
      <point x="249" y="184"/>
      <point x="287" y="184" type="qcurve"/>
      <point x="317" y="184"/>
      <point x="348" y="162"/>
    </contour>
  </outline>
</glyph>
<glyph name="oslash" format="2">
  <advance width="614"/>
  <unicode hex="00F8"/>
  <outline>
    <contour>
      <point x="52" y="188" type="qcurve"/>
      <point x="52" y="307"/>
      <point x="229" y="480"/>
      <point x="356" y="480" type="qcurve"/>
      <point x="390" y="480"/>
      <point x="453" y="461"/>
      <point x="479" y="442" type="qcurve"/>
      <point x="569" y="536" type="line"/>
      <point x="665" y="536" type="line"/>
      <point x="522" y="400" type="line"/>
      <point x="541" y="374"/>
      <point x="562" y="310"/>
      <point x="562" y="277" type="qcurve"/>
      <point x="562" y="158"/>
      <point x="385" y="-15"/>
      <point x="258" y="-15" type="qcurve"/>
      <point x="223" y="-15"/>
      <point x="161" y="4"/>
      <point x="134" y="23" type="qcurve"/>
      <point x="45" y="-71" type="line"/>
      <point x="-50" y="-71" type="line"/>
      <point x="92" y="64" type="line"/>
      <point x="72" y="92"/>
      <point x="52" y="154"/>
    </contour>
    <contour>
      <point x="345" y="410" type="qcurve"/>
      <point x="263" y="410"/>
      <point x="140" y="277"/>
      <point x="140" y="190" type="qcurve"/>
      <point x="140" y="172"/>
      <point x="148" y="137"/>
      <point x="156" y="121" type="qcurve"/>
      <point x="423" y="385" type="line"/>
      <point x="407" y="397"/>
      <point x="367" y="410"/>
    </contour>
    <contour>
      <point x="270" y="56" type="qcurve"/>
      <point x="352" y="56"/>
      <point x="474" y="188"/>
      <point x="474" y="276" type="qcurve"/>
      <point x="474" y="295"/>
      <point x="466" y="329"/>
      <point x="458" y="344" type="qcurve"/>
      <point x="191" y="81" type="line"/>
      <point x="207" y="69"/>
      <point x="247" y="56"/>
    </contour>
  </outline>
</glyph>
<glyph name="thorn" format="2">
  <advance width="614"/>
  <unicode hex="00FE"/>
  <outline>
    <contour>
      <point x="45" y="-230" type="line"/>
      <point x="-41" y="-230" type="line"/>
      <point x="229" y="710" type="line"/>
      <point x="315" y="710" type="line"/>
      <point x="224" y="392" type="line"/>
      <point x="272" y="435"/>
      <point x="357" y="475"/>
      <point x="402" y="475" type="qcurve"/>
      <point x="477" y="475"/>
      <point x="566" y="381"/>
      <point x="566" y="300" type="qcurve"/>
      <point x="566" y="167"/>
      <point x="377" y="-8"/>
      <point x="228" y="-8" type="qcurve"/>
      <point x="199" y="-8"/>
      <point x="143" y="1"/>
      <point x="114" y="10" type="qcurve"/>
    </contour>
    <contour>
      <point x="476" y="291" type="qcurve"/>
      <point x="476" y="342"/>
      <point x="421" y="403"/>
      <point x="376" y="403" type="qcurve"/>
      <point x="336" y="403"/>
      <point x="259" y="360"/>
      <point x="199" y="307" type="qcurve"/>
      <point x="135" y="82" type="line"/>
      <point x="155" y="73"/>
      <point x="203" y="63"/>
      <point x="230" y="63" type="qcurve"/>
      <point x="339" y="63"/>
      <point x="476" y="196"/>
    </contour>
  </outline>
</glyph>
<glyph name="Aogonek" format="2">
  <advance width="614"/>
  <unicode hex="0104"/>
  <outline>
    <contour>
      <point x="174" y="178" type="line"/>
      <point x="67" y="0" type="line"/>
      <point x="-26" y="0" type="line"/>
      <point x="375" y="655" type="line"/>
      <point x="481" y="655" type="line"/>
      <point x="508" y="0" type="line"/>
      <point x="488" y="0" type="line"/>
      <point x="434" y="-55"/>
      <point x="385" y="-122"/>
      <point x="385" y="-146" type="qcurve"/>
      <point x="385" y="-159"/>
      <point x="407" y="-171"/>
      <point x="434" y="-172" type="qcurve"/>
      <point x="496" y="-176" type="line"/>
      <point x="474" y="-235" type="line"/>
      <point x="399" y="-231" type="line"/>
      <point x="349" y="-228"/>
      <point x="305" y="-200"/>
      <point x="305" y="-169" type="qcurve"/>
      <point x="305" y="-137"/>
      <point x="364" y="-64"/>
      <point x="437" y="0" type="qcurve"/>
      <point x="423" y="0" type="line"/>
      <point x="417" y="178" type="line"/>
    </contour>
    <contour>
      <point x="407" y="570" type="line"/>
      <point x="215" y="248" type="line"/>
      <point x="417" y="248" type="line"/>
    </contour>
  </outline>
</glyph>
<glyph name="dcroat" format="2">
  <advance width="614"/>
  <unicode hex="0111"/>
  <outline>
    <contour>
      <point x="437" y="0" type="line"/>
      <point x="370" y="0" type="line"/>
      <point x="378" y="76" type="line"/>
      <point x="329" y="31"/>
      <point x="247" y="-8"/>
      <point x="203" y="-8" type="qcurve"/>
      <point x="134" y="-8"/>
      <point x="48" y="81"/>
      <point x="48" y="155" type="qcurve"/>
      <point x="48" y="273"/>
      <point x="226" y="428"/>
      <point x="367" y="428" type="qcurve"/>
      <point x="394" y="428"/>
      <point x="444" y="419"/>
      <point x="469" y="409" type="qcurve"/>
      <point x="503" y="529" type="line"/>
      <point x="325" y="529" type="line"/>
      <point x="342" y="586" type="line"/>
      <point x="519" y="586" type="line"/>
      <point x="555" y="710" type="line"/>
      <point x="641" y="710" type="line"/>
      <point x="605" y="586" type="line"/>
      <point x="688" y="586" type="line"/>
      <point x="672" y="529" type="line"/>
      <point x="589" y="529" type="line"/>
    </contour>
    <contour>
      <point x="368" y="359" type="qcurve"/>
      <point x="265" y="359"/>
      <point x="138" y="246"/>
      <point x="138" y="164" type="qcurve"/>
      <point x="138" y="118"/>
      <point x="188" y="63"/>
      <point x="229" y="63" type="qcurve"/>
      <point x="267" y="63"/>
      <point x="339" y="103"/>
      <point x="396" y="154" type="qcurve"/>
      <point x="449" y="341" type="line"/>
      <point x="430" y="350"/>
      <point x="389" y="359"/>
    </contour>
  </outline>
</glyph>
<glyph name="Eogonek" format="2">
  <advance width="614"/>
  <unicode hex="0118"/>
  <outline>
    <contour>
      <point x="237" y="-169" type="qcurve"/>
      <point x="237" y="-137"/>
      <point x="296" y="-64"/>
      <point x="369" y="0" type="qcurve"/>
      <point x="31" y="0" type="line"/>
      <point x="219" y="655" type="line"/>
      <point x="657" y="655" type="line"/>
      <point x="636" y="583" type="line"/>
      <point x="285" y="583" type="line"/>
      <point x="223" y="367" type="line"/>
      <point x="520" y="367" type="line"/>
      <point x="499" y="295" type="line"/>
      <point x="203" y="295" type="line"/>
      <point x="139" y="72" type="line"/>
      <point x="496" y="72" type="line"/>
      <point x="475" y="0" type="line"/>
      <point x="420" y="0" type="line"/>
      <point x="366" y="-55"/>
      <point x="318" y="-122"/>
      <point x="318" y="-146" type="qcurve"/>
      <point x="318" y="-159"/>
      <point x="340" y="-171"/>
      <point x="367" y="-172" type="qcurve"/>
      <point x="428" y="-176" type="line"/>
      <point x="406" y="-235" type="line"/>
      <point x="332" y="-231" type="line"/>
      <point x="281" y="-228"/>
      <point x="237" y="-200"/>
    </contour>
  </outline>
</glyph>
<glyph name="eogonek" format="2">
  <advance width="614"/>
  <unicode hex="0119"/>
  <outline>
    <contour>
      <point x="416" y="62" type="line"/>
      <point x="262" y="64"/>
      <point x="153" y="102"/>
      <point x="153" y="171" type="qcurve"/>
      <point x="153" y="174"/>
      <point x="153" y="180"/>
      <point x="153" y="183" type="qcurve"/>
      <point x="319" y="197" type="line"/>
      <point x="451" y="209"/>
      <point x="572" y="282"/>
      <point x="572" y="355" type="qcurve"/>
      <point x="572" y="413"/>
      <point x="481" y="480"/>
      <point x="402" y="480" type="qcurve"/>
      <point x="337" y="480"/>
      <point x="218" y="432"/>
      <point x="170" y="388" type="qcurve"/>
      <point x="121" y="342"/>
      <point x="66" y="224"/>
      <point x="66" y="163" type="qcurve"/>
      <point x="66" y="98"/>
      <point x="121" y="28"/>
      <point x="184" y="12" type="qcurve"/>
      <point x="220" y="2"/>
      <point x="305" y="-5"/>
      <point x="345" y="-6" type="qcurve"/>
      <point x="275" y="-65"/>
      <point x="211" y="-136"/>
      <point x="211" y="-169" type="qcurve"/>
      <point x="211" y="-200"/>
      <point x="255" y="-228"/>
      <point x="306" y="-231" type="qcurve"/>
      <point x="380" y="-235" type="line"/>
      <point x="402" y="-176" type="line"/>
      <point x="341" y="-172" type="line"/>
      <point x="314" y="-171"/>
      <point x="292" y="-159"/>
      <point x="292" y="-146" type="qcurve"/>
      <point x="292" y="-125"/>
      <point x="340" y="-63"/>
      <point x="395" y="-7" type="qcurve"/>
    </contour>
    <contour>
      <point x="165" y="241" type="line"/>
      <point x="189" y="314"/>
      <point x="320" y="411"/>
      <point x="397" y="411" type="qcurve"/>
      <point x="437" y="411"/>
      <point x="485" y="377"/>
      <point x="485" y="350" type="qcurve"/>
      <point x="485" y="311"/>
      <point x="402" y="265"/>
      <point x="317" y="256" type="qcurve"/>
    </contour>
  </outline>
</glyph>
<glyph name="hbar" format="2">
  <advance width="614"/>
  <unicode hex="0127"/>
  <outline>
    <contour>
      <point x="475" y="586" type="line"/>
      <point x="459" y="529" type="line"/>
      <point x="281" y="529" type="line"/>
      <point x="212" y="290" type="line"/>
      <point x="297" y="371"/>
      <point x="390" y="428"/>
      <point x="442" y="428" type="qcurve"/>
      <point x="488" y="428"/>
      <point x="543" y="376"/>
      <point x="543" y="332" type="qcurve"/>
      <point x="543" y="319"/>
      <point x="536" y="282"/>
      <point x="528" y="253" type="qcurve"/>
      <point x="456" y="0" type="line"/>
      <point x="370" y="0" type="line"/>
      <point x="441" y="250" type="line"/>
      <point x="446" y="268"/>
      <point x="451" y="293"/>
      <point x="451" y="305" type="qcurve"/>
      <point x="451" y="326"/>
      <point x="428" y="350"/>
      <point x="407" y="350" type="qcurve"/>
      <point x="371" y="350"/>
      <point x="286" y="287"/>
      <point x="183" y="187" type="qcurve"/>
      <point x="129" y="0" type="line"/>
      <point x="44" y="0" type="line"/>
      <point x="196" y="529" type="line"/>
      <point x="112" y="529" type="line"/>
      <point x="129" y="586" type="line"/>
      <point x="212" y="586" type="line"/>
      <point x="248" y="710" type="line"/>
      <point x="333" y="710" type="line"/>
      <point x="297" y="586" type="line"/>
    </contour>
  </outline>
</glyph>
<glyph name="Iogonek" format="2">
  <advance width="614"/>
  <unicode hex="012E"/>
  <outline>
    <contour>
      <point x="65" y="0" type="line"/>
      <point x="78" y="43" type="line"/>
      <point x="211" y="68" type="line"/>
      <point x="372" y="590" type="line"/>
      <point x="239" y="612" type="line"/>
      <point x="251" y="655" type="line"/>
      <point x="604" y="655" type="line"/>
      <point x="591" y="612" type="line"/>
      <point x="458" y="587" type="line"/>
      <point x="297" y="65" type="line"/>
      <point x="429" y="43" type="line"/>
      <point x="417" y="0" type="line"/>
      <point x="266" y="0" type="line"/>
      <point x="213" y="-55"/>
      <point x="164" y="-122"/>
      <point x="164" y="-145" type="qcurve"/>
      <point x="164" y="-158"/>
      <point x="186" y="-170"/>
      <point x="213" y="-172" type="qcurve"/>
      <point x="275" y="-176" type="line"/>
      <point x="252" y="-234" type="line"/>
      <point x="178" y="-230" type="line"/>
      <point x="127" y="-228"/>
      <point x="84" y="-200"/>
      <point x="84" y="-168" type="qcurve"/>
      <point x="84" y="-136"/>
      <point x="141" y="-65"/>
      <point x="215" y="0" type="qcurve"/>
    </contour>
  </outline>
</glyph>
<glyph name="iogonek" format="2">
  <advance width="614"/>
  <unicode hex="012F"/>
  <outline>
    <contour>
      <point x="496" y="677" type="qcurve"/>
      <point x="496" y="644"/>
      <point x="448" y="603"/>
      <point x="409" y="603" type="qcurve"/>
      <point x="376" y="603"/>
      <point x="340" y="631"/>
      <point x="340" y="657" type="qcurve"/>
      <point x="340" y="688"/>
      <point x="388" y="730"/>
      <point x="427" y="730" type="qcurve"/>
      <point x="460" y="730"/>
      <point x="496" y="703"/>
    </contour>
    <contour>
      <point x="47" y="0" type="line"/>
      <point x="68" y="72" type="line"/>
      <point x="225" y="72" type="line"/>
      <point x="335" y="393" type="line"/>
      <point x="180" y="393" type="line"/>
      <point x="201" y="465" type="line"/>
      <point x="445" y="465" type="line"/>
      <point x="310" y="72" type="line"/>
      <point x="485" y="72" type="line"/>
      <point x="465" y="0" type="line"/>
      <point x="281" y="0" type="line"/>
      <point x="227" y="-55"/>
      <point x="179" y="-122"/>
      <point x="179" y="-146" type="qcurve"/>
      <point x="179" y="-159"/>
      <point x="201" y="-171"/>
      <point x="228" y="-172" type="qcurve"/>
      <point x="290" y="-176" type="line"/>
      <point x="267" y="-235" type="line"/>
      <point x="193" y="-231" type="line"/>
      <point x="142" y="-228"/>
      <point x="98" y="-200"/>
      <point x="98" y="-169" type="qcurve"/>
      <point x="98" y="-136"/>
      <point x="157" y="-64"/>
      <point x="231" y="0" type="qcurve"/>
    </contour>
  </outline>
</glyph>
<glyph name="dotlessi" format="2">
  <advance width="614"/>
  <unicode hex="0131"/>
  <outline>
    <contour>
      <point x="47" y="0" type="line"/>
      <point x="68" y="72" type="line"/>
      <point x="225" y="72" type="line"/>
      <point x="335" y="393" type="line"/>
      <point x="180" y="393" type="line"/>
      <point x="201" y="465" type="line"/>
      <point x="445" y="465" type="line"/>
      <point x="310" y="72" type="line"/>
      <point x="485" y="72" type="line"/>
      <point x="465" y="0" type="line"/>
    </contour>
  </outline>
</glyph>
<glyph name="Lslash" format="2">
  <advance width="614"/>
  <unicode hex="0141"/>
  <outline>
    <contour>
      <point x="130" y="250" type="line"/>
      <point x="31" y="193" type="line"/>
      <point x="51" y="265" type="line"/>
      <point x="151" y="322" type="line"/>
      <point x="246" y="655" type="line"/>
      <point x="333" y="655" type="line"/>
      <point x="252" y="371" type="line"/>
      <point x="491" y="509" type="line"/>
      <point x="471" y="438" type="line"/>
      <point x="232" y="300" type="line"/>
      <point x="166" y="71" type="line"/>
      <point x="497" y="71" type="line"/>
      <point x="477" y="0" type="line"/>
      <point x="59" y="0" type="line"/>
    </contour>
  </outline>
</glyph>
<glyph name="lslash" format="2">
  <advance width="614"/>
  <unicode hex="0142"/>
  <outline>
    <contour>
      <point x="253" y="317" type="line"/>
      <point x="88" y="239" type="line"/>
      <point x="109" y="309" type="line"/>
      <point x="279" y="390" type="line"/>
      <point x="369" y="638" type="line"/>
      <point x="181" y="638" type="line"/>
      <point x="202" y="710" type="line"/>
      <point x="480" y="710" type="line"/>
      <point x="378" y="426" type="line"/>
      <point x="563" y="514" type="line"/>
      <point x="543" y="444" type="line"/>
      <point x="351" y="353" type="line"/>
      <point x="312" y="243" type="line"/>
      <point x="298" y="204"/>
      <point x="288" y="160"/>
      <point x="288" y="139" type="qcurve"/>
      <point x="288" y="104"/>
      <point x="325" y="72"/>
      <point x="369" y="70" type="qcurve"/>
      <point x="483" y="66" type="line"/>
      <point x="462" y="-8" type="line"/>
      <point x="352" y="-4" type="line"/>
      <point x="273" y="-2"/>
      <point x="200" y="59"/>
      <point x="200" y="123" type="qcurve"/>
      <point x="200" y="149"/>
      <point x="214" y="210"/>
      <point x="230" y="254" type="qcurve"/>
    </contour>
  </outline>
</glyph>
<glyph name="oe" format="2">
  <advance width="614"/>
  <unicode hex="0153"/>
  <outline>
    <contour>
      <point x="270" y="80" type="qcurve"/>
      <point x="238" y="34"/>
      <point x="163" y="-14"/>
      <point x="123" y="-14" type="qcurve"/>
      <point x="67" y="-14"/>
      <point x="9" y="61"/>
      <point x="9" y="133" type="qcurve"/>
      <point x="9" y="214"/>
      <point x="68" y="371"/>
      <point x="118" y="420" type="qcurve"/>
      <point x="148" y="450"/>
      <point x="209" y="478"/>
      <point x="243" y="478" type="qcurve"/>
      <point x="288" y="478"/>
      <point x="341" y="424"/>
      <point x="347" y="371" type="qcurve"/>
      <point x="381" y="423"/>
      <point x="467" y="478"/>
      <point x="512" y="478" type="qcurve"/>
      <point x="561" y="478"/>
      <point x="617" y="424"/>
      <point x="617" y="376" type="qcurve"/>
      <point x="617" y="297"/>
      <point x="486" y="223"/>
      <point x="342" y="210" type="qcurve"/>
      <point x="338" y="195"/>
      <point x="335" y="165"/>
      <point x="335" y="150" type="qcurve"/>
      <point x="335" y="98"/>
      <point x="398" y="59"/>
      <point x="484" y="59" type="qcurve"/>
      <point x="463" y="-5" type="line"/>
      <point x="373" y="-5"/>
      <point x="284" y="34"/>
    </contour>
    <contour>
      <point x="536" y="367" type="qcurve"/>
      <point x="536" y="390"/>
      <point x="513" y="413"/>
      <point x="491" y="413" type="qcurve"/>
      <point x="456" y="413"/>
      <point x="382" y="329"/>
      <point x="357" y="263" type="qcurve"/>
      <point x="447" y="273"/>
      <point x="536" y="324"/>
    </contour>
    <contour>
      <point x="184" y="381" type="qcurve"/>
      <point x="148" y="345"/>
      <point x="94" y="194"/>
      <point x="94" y="129" type="qcurve"/>
      <point x="94" y="92"/>
      <point x="119" y="54"/>
      <point x="144" y="54" type="qcurve"/>
      <point x="158" y="54"/>
      <point x="186" y="68"/>
      <point x="200" y="82" type="qcurve"/>
      <point x="237" y="119"/>
      <point x="291" y="268"/>
      <point x="291" y="335" type="qcurve"/>
      <point x="291" y="371"/>
      <point x="265" y="411"/>
      <point x="242" y="411" type="qcurve"/>
      <point x="228" y="411"/>
      <point x="199" y="396"/>
    </contour>
  </outline>
</glyph>
<glyph name="Scedilla" format="2">
  <advance width="614"/>
  <unicode hex="015E"/>
  <outline>
    <contour>
      <point x="292" y="61" type="qcurve"/>
      <point x="365" y="61"/>
      <point x="444" y="119"/>
      <point x="444" y="173" type="qcurve"/>
      <point x="444" y="208"/>
      <point x="403" y="259"/>
      <point x="357" y="284" type="qcurve"/>
      <point x="279" y="327" type="line"/>
      <point x="219" y="360"/>
      <point x="166" y="436"/>
      <point x="166" y="489" type="qcurve"/>
      <point x="166" y="567"/>
      <point x="294" y="667"/>
      <point x="399" y="667" type="qcurve"/>
      <point x="454" y="667"/>
      <point x="555" y="648"/>
      <point x="624" y="624" type="qcurve"/>
      <point x="600" y="549" type="line"/>
      <point x="542" y="572"/>
      <point x="443" y="593"/>
      <point x="398" y="593" type="qcurve"/>
      <point x="329" y="593"/>
      <point x="254" y="541"/>
      <point x="254" y="495" type="qcurve"/>
      <point x="254" y="463"/>
      <point x="288" y="417"/>
      <point x="328" y="395" type="qcurve"/>
      <point x="406" y="351" type="line"/>
      <point x="476" y="311"/>
      <point x="532" y="239"/>
      <point x="532" y="180" type="qcurve"/>
      <point x="532" y="90"/>
      <point x="404" y="-13"/>
      <point x="293" y="-13" type="qcurve"/>
      <point x="275" y="-13" type="line"/>
      <point x="244" y="-65" type="line"/>
      <point x="316" y="-76"/>
      <point x="374" y="-112"/>
      <point x="374" y="-148" type="qcurve"/>
      <point x="374" y="-191"/>
      <point x="319" y="-232"/>
      <point x="254" y="-247" type="qcurve"/>
      <point x="222" y="-254"/>
      <point x="137" y="-265"/>
      <point x="83" y="-270" type="qcurve"/>
      <point x="82" y="-216" type="line"/>
      <point x="120" y="-213"/>
      <point x="179" y="-206"/>
      <point x="201" y="-203" type="qcurve"/>
      <point x="256" y="-195"/>
      <point x="300" y="-175"/>
      <point x="300" y="-155" type="qcurve"/>
      <point x="300" y="-137"/>
      <point x="244" y="-119"/>
      <point x="172" y="-112" type="qcurve"/>
      <point x="169" y="-102" type="line"/>
      <point x="228" y="-9" type="line"/>
      <point x="180" y="-4"/>
      <point x="83" y="27"/>
      <point x="26" y="55" type="qcurve"/>
      <point x="57" y="128" type="line"/>
      <point x="131" y="93"/>
      <point x="242" y="61"/>
    </contour>
  </outline>
</glyph>
<glyph name="scedilla" format="2">
  <advance width="614"/>
  <unicode hex="015F"/>
  <outline>
    <contour>
      <point x="493" y="127" type="qcurve"/>
      <point x="493" y="62"/>
      <point x="379" y="-11"/>
      <point x="274" y="-11" type="qcurve"/>
      <point x="269" y="-11"/>
      <point x="259" y="-11"/>
      <point x="254" y="-11" type="qcurve"/>
      <point x="221" y="-65" type="line"/>
      <point x="293" y="-76"/>
      <point x="351" y="-112"/>
      <point x="351" y="-148" type="qcurve"/>
      <point x="351" y="-191"/>
      <point x="296" y="-232"/>
      <point x="231" y="-247" type="qcurve"/>
      <point x="199" y="-254"/>
      <point x="114" y="-265"/>
      <point x="60" y="-270" type="qcurve"/>
      <point x="60" y="-216" type="line"/>
      <point x="98" y="-213"/>
      <point x="156" y="-206"/>
      <point x="179" y="-203" type="qcurve"/>
      <point x="233" y="-195"/>
      <point x="277" y="-176"/>
      <point x="277" y="-155" type="qcurve"/>
      <point x="277" y="-137"/>
      <point x="221" y="-119"/>
      <point x="149" y="-112" type="qcurve"/>
      <point x="146" y="-102" type="line"/>
      <point x="205" y="-9" type="line"/>
      <point x="166" y="-6"/>
      <point x="85" y="8"/>
      <point x="34" y="20" type="qcurve"/>
      <point x="54" y="93" type="line"/>
      <point x="115" y="77"/>
      <point x="227" y="60"/>
      <point x="277" y="60" type="qcurve"/>
      <point x="341" y="60"/>
      <point x="406" y="90"/>
      <point x="406" y="120" type="qcurve"/>
      <point x="406" y="143"/>
      <point x="377" y="170"/>
      <point x="335" y="188" type="qcurve"/>
      <point x="269" y="216" type="line"/>
      <point x="194" y="247"/>
      <point x="136" y="303"/>
      <point x="136" y="348" type="qcurve"/>
      <point x="136" y="410"/>
      <point x="243" y="475"/>
      <point x="348" y="475" type="qcurve"/>
      <point x="393" y="475"/>
      <point x="508" y="460"/>
      <point x="560" y="447" type="qcurve"/>
      <point x="539" y="376" type="line"/>
      <point x="486" y="390"/>
      <point x="388" y="405"/>
      <point x="346" y="405" type="qcurve"/>
      <point x="283" y="405"/>
      <point x="224" y="381"/>
      <point x="224" y="354" type="qcurve"/>
      <point x="224" y="333"/>
      <point x="249" y="309"/>
      <point x="294" y="289" type="qcurve"/>
      <point x="359" y="261" type="line"/>
      <point x="441" y="225"/>
      <point x="493" y="174"/>
    </contour>
  </outline>
</glyph>
<glyph name="Tcedilla" format="2">
  <advance width="614"/>
  <unicode hex="0162"/>
  <outline>
    <contour>
      <point x="361" y="583" type="line"/>
      <point x="148" y="583" type="line"/>
      <point x="169" y="655" type="line"/>
      <point x="681" y="655" type="line"/>
      <point x="660" y="583" type="line"/>
      <point x="448" y="583" type="line"/>
      <point x="281" y="0" type="line"/>
      <point x="265" y="0" type="line"/>
      <point x="228" y="-60" type="line"/>
      <point x="300" y="-71"/>
      <point x="359" y="-106"/>
      <point x="359" y="-142" type="qcurve"/>
      <point x="359" y="-185"/>
      <point x="303" y="-227"/>
      <point x="239" y="-241" type="qcurve"/>
      <point x="207" y="-248"/>
      <point x="121" y="-260"/>
      <point x="67" y="-265" type="qcurve"/>
      <point x="67" y="-211" type="line"/>
      <point x="105" y="-208"/>
      <point x="164" y="-201"/>
      <point x="186" y="-198" type="qcurve"/>
      <point x="241" y="-190"/>
      <point x="285" y="-170"/>
      <point x="285" y="-150" type="qcurve"/>
      <point x="285" y="-132"/>
      <point x="229" y="-114"/>
      <point x="156" y="-107" type="qcurve"/>
      <point x="153" y="-97" type="line"/>
      <point x="215" y="0" type="line"/>
      <point x="194" y="0" type="line"/>
    </contour>
  </outline>
</glyph>
<glyph name="Uogonek" format="2">
  <advance width="614"/>
  <unicode hex="0172"/>
  <outline>
    <contour>
      <point x="96" y="-174" type="qcurve"/>
      <point x="96" y="-142"/>
      <point x="152" y="-71"/>
      <point x="221" y="-12" type="qcurve"/>
      <point x="147" y="-1"/>
      <point x="69" y="89"/>
      <point x="69" y="164" type="qcurve"/>
      <point x="69" y="187"/>
      <point x="80" y="244"/>
      <point x="92" y="286" type="qcurve"/>
      <point x="199" y="655" type="line"/>
      <point x="286" y="655" type="line"/>
      <point x="172" y="261" type="line"/>
      <point x="163" y="230"/>
      <point x="155" y="185"/>
      <point x="155" y="168" type="qcurve"/>
      <point x="155" y="116"/>
      <point x="218" y="62"/>
      <point x="279" y="62" type="qcurve"/>
      <point x="342" y="62"/>
      <point x="422" y="136"/>
      <point x="445" y="213" type="qcurve"/>
      <point x="572" y="655" type="line"/>
      <point x="658" y="655" type="line"/>
      <point x="528" y="206" type="line"/>
      <point x="495" y="91"/>
      <point x="371" y="-15"/>
      <point x="269" y="-15" type="qcurve"/>
      <point x="220" y="-66"/>
      <point x="177" y="-128"/>
      <point x="177" y="-151" type="qcurve"/>
      <point x="177" y="-164"/>
      <point x="199" y="-176"/>
      <point x="226" y="-177" type="qcurve"/>
      <point x="288" y="-181" type="line"/>
      <point x="265" y="-240" type="line"/>
      <point x="191" y="-236" type="line"/>
      <point x="140" y="-233"/>
      <point x="96" y="-205"/>
    </contour>
  </outline>
</glyph>
<glyph name="uogonek" format="2">
  <advance width="614"/>
  <unicode hex="0173"/>
  <outline>
    <contour>
      <point x="256" y="-169" type="qcurve"/>
      <point x="256" y="-137"/>
      <point x="315" y="-65"/>
      <point x="389" y="0" type="qcurve"/>
      <point x="372" y="0" type="line"/>
      <point x="408" y="135" type="line"/>
      <point x="323" y="54"/>
      <point x="223" y="-7"/>
      <point x="167" y="-7" type="qcurve"/>
      <point x="118" y="-7"/>
      <point x="59" y="45"/>
      <point x="59" y="89" type="qcurve"/>
      <point x="59" y="104"/>
      <point x="66" y="142"/>
      <point x="74" y="168" type="qcurve"/>
      <point x="159" y="465" type="line"/>
      <point x="245" y="465" type="line"/>
      <point x="160" y="171" type="line"/>
      <point x="155" y="151"/>
      <point x="150" y="126"/>
      <point x="150" y="116" type="qcurve"/>
      <point x="150" y="95"/>
      <point x="177" y="71"/>
      <point x="202" y="71" type="qcurve"/>
      <point x="240" y="71"/>
      <point x="334" y="140"/>
      <point x="435" y="237" type="qcurve"/>
      <point x="500" y="465" type="line"/>
      <point x="586" y="465" type="line"/>
      <point x="452" y="0" type="line"/>
      <point x="440" y="0" type="line"/>
      <point x="386" y="-55"/>
      <point x="337" y="-122"/>
      <point x="337" y="-146" type="qcurve"/>
      <point x="337" y="-159"/>
      <point x="359" y="-171"/>
      <point x="386" y="-172" type="qcurve"/>
      <point x="448" y="-176" type="line"/>
      <point x="425" y="-235" type="line"/>
      <point x="351" y="-231" type="line"/>
      <point x="300" y="-228"/>
      <point x="256" y="-200"/>
    </contour>
  </outline>
</glyph>
<glyph name="Schwa" format="2">
  <advance width="614"/>
  <unicode hex="018F"/>
  <outline>
    <contour>
      <point x="604" y="471" type="qcurve"/>
      <point x="604" y="435"/>
      <point x="589" y="348"/>
      <point x="574" y="295" type="qcurve"/>
      <point x="529" y="138"/>
      <point x="367" y="-15"/>
      <point x="245" y="-15" type="qcurve"/>
      <point x="155" y="-15"/>
      <point x="58" y="70"/>
      <point x="58" y="149" type="qcurve"/>
      <point x="58" y="197"/>
      <point x="83" y="312"/>
      <point x="107" y="375" type="qcurve"/>
      <point x="503" y="375" type="line"/>
      <point x="509" y="403"/>
      <point x="515" y="450"/>
      <point x="515" y="470" type="qcurve"/>
      <point x="515" y="535"/>
      <point x="446" y="592"/>
      <point x="365" y="592" type="qcurve"/>
      <point x="338" y="592"/>
      <point x="276" y="585"/>
      <point x="244" y="579" type="qcurve"/>
      <point x="273" y="654" type="line"/>
      <point x="305" y="660"/>
      <point x="351" y="664"/>
      <point x="378" y="664" type="qcurve"/>
      <point x="492" y="664"/>
      <point x="604" y="568"/>
    </contour>
    <contour>
      <point x="146" y="161" type="qcurve"/>
      <point x="146" y="108"/>
      <point x="195" y="57"/>
      <point x="248" y="57" type="qcurve"/>
      <point x="333" y="57"/>
      <point x="444" y="175"/>
      <point x="484" y="306" type="qcurve"/>
      <point x="171" y="306" type="line"/>
      <point x="159" y="267"/>
      <point x="146" y="193"/>
    </contour>
  </outline>
</glyph>
<glyph name="ohorn" format="2">
  <advance width="614"/>
  <unicode hex="01A1"/>
  <outline>
    <contour>
      <point x="52" y="181" type="qcurve"/>
      <point x="52" y="238"/>
      <point x="98" y="341"/>
      <point x="138" y="379" type="qcurve"/>
      <point x="179" y="418"/>
      <point x="292" y="465"/>
      <point x="357" y="465" type="qcurve"/>
      <point x="482" y="465" type="line"/>
      <point x="538" y="465"/>
      <point x="584" y="506"/>
      <point x="606" y="577" type="qcurve"/>
      <point x="687" y="577" type="line"/>
      <point x="656" y="478"/>
      <point x="588" y="412"/>
      <point x="516" y="412" type="qcurve"/>
      <point x="511" y="412"/>
      <point x="498" y="413"/>
      <point x="488" y="414" type="qcurve"/>
      <point x="484" y="409" type="line"/>
      <point x="523" y="379"/>
      <point x="562" y="308"/>
      <point x="562" y="267" type="qcurve"/>
      <point x="562" y="210"/>
      <point x="517" y="109"/>
      <point x="478" y="71" type="qcurve"/>
      <point x="437" y="31"/>
      <point x="323" y="-15"/>
      <point x="258" y="-15" type="qcurve"/>
      <point x="166" y="-15"/>
      <point x="52" y="95"/>
    </contour>
    <contour>
      <point x="140" y="183" type="qcurve"/>
      <point x="140" y="127"/>
      <point x="213" y="56"/>
      <point x="270" y="56" type="qcurve"/>
      <point x="352" y="56"/>
      <point x="474" y="184"/>
      <point x="474" y="269" type="qcurve"/>
      <point x="474" y="324"/>
      <point x="402" y="395"/>
      <point x="346" y="395" type="qcurve"/>
      <point x="263" y="395"/>
      <point x="140" y="267"/>
    </contour>
  </outline>
</glyph>
<glyph name="oogonek" format="2">
  <advance width="614"/>
  <unicode hex="01EB"/>
  <outline>
    <contour>
      <point x="91" y="-174" type="qcurve"/>
      <point x="91" y="-142"/>
      <point x="147" y="-71"/>
      <point x="216" y="-12" type="qcurve"/>
      <point x="141" y="1"/>
      <point x="52" y="110"/>
      <point x="52" y="188" type="qcurve"/>
      <point x="52" y="247"/>
      <point x="98" y="352"/>
      <point x="138" y="392" type="qcurve"/>
      <point x="179" y="432"/>
      <point x="292" y="480"/>
      <point x="356" y="480" type="qcurve"/>
      <point x="448" y="480"/>
      <point x="562" y="367"/>
      <point x="562" y="277" type="qcurve"/>
      <point x="562" y="217"/>
      <point x="515" y="111"/>
      <point x="474" y="71" type="qcurve"/>
      <point x="435" y="32"/>
      <point x="326" y="-14"/>
      <point x="264" y="-15" type="qcurve"/>
      <point x="215" y="-66"/>
      <point x="171" y="-128"/>
      <point x="171" y="-151" type="qcurve"/>
      <point x="171" y="-164"/>
      <point x="194" y="-176"/>
      <point x="221" y="-177" type="qcurve"/>
      <point x="282" y="-181" type="line"/>
      <point x="260" y="-240" type="line"/>
      <point x="186" y="-236" type="line"/>
      <point x="135" y="-233"/>
      <point x="91" y="-205"/>
    </contour>
    <contour>
      <point x="140" y="190" type="qcurve"/>
      <point x="140" y="131"/>
      <point x="213" y="56"/>
      <point x="270" y="56" type="qcurve"/>
      <point x="352" y="56"/>
      <point x="474" y="188"/>
      <point x="474" y="276" type="qcurve"/>
      <point x="474" y="334"/>
      <point x="401" y="410"/>
      <point x="345" y="410" type="qcurve"/>
      <point x="263" y="410"/>
      <point x="140" y="277"/>
    </contour>
  </outline>
</glyph>
<glyph name="dotlessj" format="2">
  <advance width="614"/>
  <unicode hex="0237"/>
  <outline>
    <contour>
      <point x="488" y="465" type="line"/>
      <point x="359" y="17" type="line"/>
      <point x="336" y="-65"/>
      <point x="290" y="-152"/>
      <point x="259" y="-177" type="qcurve"/>
      <point x="227" y="-202"/>
      <point x="129" y="-228"/>
      <point x="46" y="-233" type="qcurve"/>
      <point x="-31" y="-238" type="line"/>
      <point x="-31" y="-164" type="line"/>
      <point x="45" y="-160" type="line"/>
      <point x="100" y="-157"/>
      <point x="175" y="-139"/>
      <point x="201" y="-118" type="qcurve"/>
      <point x="226" y="-98"/>
      <point x="262" y="-28"/>
      <point x="277" y="26" type="qcurve"/>
      <point x="382" y="393" type="line"/>
      <point x="169" y="393" type="line"/>
      <point x="190" y="465" type="line"/>
    </contour>
  </outline>
</glyph>
<glyph name="ringhalfleft" format="2">
  <advance width="614"/>
  <unicode hex="02BF"/>
  <outline>
    <contour>
      <point x="288" y="644" type="qcurve"/>
      <point x="330" y="686"/>
      <point x="459" y="725"/>
      <point x="559" y="725" type="qcurve"/>
      <point x="538" y="651" type="line"/>
      <point x="426" y="651"/>
      <point x="317" y="567"/>
      <point x="317" y="479" type="qcurve"/>
      <point x="317" y="434"/>
      <point x="390" y="389"/>
      <point x="463" y="389" type="qcurve"/>
      <point x="441" y="315" type="line"/>
      <point x="335" y="315"/>
      <point x="226" y="399"/>
      <point x="226" y="480" type="qcurve"/>
      <point x="226" y="530"/>
      <point x="257" y="613"/>
    </contour>
  </outline>
</glyph>
<glyph name="verticallinemod" format="2">
  <advance width="614"/>
  <unicode hex="02C8"/>
  <outline>
    <contour>
      <point x="491" y="715" type="line"/>
      <point x="378" y="323" type="line"/>
      <point x="288" y="323" type="line"/>
      <point x="400" y="715" type="line"/>
    </contour>
  </outline>
</glyph>
<glyph name="gravecmb" format="2">
  <unicode hex="0300"/>
  <outline>
    <contour>
      <point x="17" y="740" type="line"/>
      <point x="181" y="581" type="line"/>
      <point x="145" y="541" type="line"/>
      <point x="-34" y="686" type="line"/>
    </contour>
  </outline>
</glyph>
<glyph name="circumflexcmb" format="2">
  <unicode hex="0302"/>
  <outline>
    <contour>
      <point x="-60" y="541" type="line"/>
      <point x="-89" y="580" type="line"/>
      <point x="117" y="746" type="line"/>
      <point x="161" y="746" type="line"/>
      <point x="280" y="571" type="line"/>
      <point x="238" y="541" type="line"/>
      <point x="127" y="674" type="line"/>
    </contour>
  </outline>
</glyph>
<glyph name="tildecmb" format="2">
  <unicode hex="0303"/>
  <outline>
    <contour>
      <point x="173" y="541" type="qcurve"/>
      <point x="152" y="541"/>
      <point x="116" y="573"/>
      <point x="91" y="611" type="qcurve"/>
      <point x="69" y="644"/>
      <point x="52" y="664"/>
      <point x="43" y="664" type="qcurve"/>
      <point x="30" y="664"/>
      <point x="-11" y="612"/>
      <point x="-58" y="539" type="qcurve"/>
      <point x="-108" y="567" type="line"/>
      <point x="-49" y="661"/>
      <point x="19" y="734"/>
      <point x="53" y="734" type="qcurve"/>
      <point x="74" y="734"/>
      <point x="110" y="702"/>
      <point x="135" y="664" type="qcurve"/>
      <point x="157" y="631"/>
      <point x="174" y="612"/>
      <point x="183" y="612" type="qcurve"/>
      <point x="196" y="612"/>
      <point x="237" y="663"/>
      <point x="284" y="736" type="qcurve"/>
      <point x="335" y="710" type="line"/>
      <point x="276" y="616"/>
      <point x="207" y="541"/>
    </contour>
  </outline>
</glyph>
<glyph name="macroncmb" format="2">
  <unicode hex="0304"/>
  <outline>
    <contour>
      <point x="266" y="581" type="line"/>
      <point x="-66" y="581" type="line"/>
      <point x="-47" y="646" type="line"/>
      <point x="285" y="646" type="line"/>
    </contour>
  </outline>
</glyph>
<glyph name="dieresiscmb" format="2">
  <unicode hex="0308"/>
  <outline>
    <contour>
      <point x="55" y="634" type="qcurve"/>
      <point x="55" y="602"/>
      <point x="15" y="561"/>
      <point x="-18" y="561" type="qcurve"/>
      <point x="-43" y="561"/>
      <point x="-69" y="581"/>
      <point x="-69" y="601" type="qcurve"/>
      <point x="-69" y="630"/>
      <point x="-27" y="674"/>
      <point x="4" y="674" type="qcurve"/>
      <point x="28" y="674"/>
      <point x="55" y="653"/>
    </contour>
    <contour>
      <point x="289" y="634" type="qcurve"/>
      <point x="289" y="602"/>
      <point x="249" y="561"/>
      <point x="217" y="561" type="qcurve"/>
      <point x="192" y="561"/>
      <point x="166" y="582"/>
      <point x="166" y="601" type="qcurve"/>
      <point x="166" y="631"/>
      <point x="209" y="674"/>
      <point x="239" y="674" type="qcurve"/>
      <point x="262" y="674"/>
      <point x="289" y="653"/>
    </contour>
  </outline>
</glyph>
<glyph name="ringcmb" format="2">
  <unicode hex="030A"/>
  <outline>
    <contour>
      <point x="-25" y="644" type="qcurve"/>
      <point x="-25" y="706"/>
      <point x="71" y="790"/>
      <point x="145" y="790" type="qcurve"/>
      <point x="204" y="790"/>
      <point x="274" y="735"/>
      <point x="274" y="687" type="qcurve"/>
      <point x="274" y="625"/>
      <point x="178" y="541"/>
      <point x="104" y="541" type="qcurve"/>
      <point x="45" y="541"/>
      <point x="-25" y="596"/>
    </contour>
    <contour>
      <point x="36" y="647" type="qcurve"/>
      <point x="36" y="622"/>
      <point x="77" y="596"/>
      <point x="117" y="596" type="qcurve"/>
      <point x="158" y="596"/>
      <point x="213" y="647"/>
      <point x="213" y="684" type="qcurve"/>
      <point x="213" y="709"/>
      <point x="173" y="735"/>
      <point x="133" y="735" type="qcurve"/>
      <point x="91" y="735"/>
      <point x="36" y="685"/>
    </contour>
  </outline>
</glyph>
<glyph name="caroncmb" format="2">
  <unicode hex="030C"/>
  <outline>
    <contour>
      <point x="70" y="541" type="line"/>
      <point x="-48" y="717" type="line"/>
      <point x="-7" y="746" type="line"/>
      <point x="105" y="614" type="line"/>
      <point x="292" y="746" type="line"/>
      <point x="320" y="707" type="line"/>
      <point x="114" y="541" type="line"/>
    </contour>
  </outline>
</glyph>
<glyph name="uni0326" format="2">
  <unicode hex="0326"/>
  <outline>
    <contour>
      <point x="-6" y="-168" type="qcurve"/>
      <point x="-6" y="-222"/>
      <point x="-125" y="-286"/>
      <point x="-244" y="-296" type="qcurve"/>
      <point x="-249" y="-250" type="line"/>
      <point x="-248" y="-249" type="line"/>
      <point x="-166" y="-237"/>
      <point x="-86" y="-201"/>
      <point x="-86" y="-174" type="qcurve"/>
      <point x="-86" y="-155"/>
      <point x="-148" y="-130"/>
      <point x="-215" y="-119" type="qcurve"/>
      <point x="-215" y="-116" type="line"/>
      <point x="-166" y="-75" type="line"/>
      <point x="-84" y="-87"/>
      <point x="-6" y="-132"/>
    </contour>
  </outline>
</glyph>
<glyph name="cedillacmb" format="2">
  <unicode hex="0327"/>
  <outline>
    <contour>
      <point x="-154" y="-97" type="line"/>
      <point x="-78" y="21" type="line"/>
      <point x="-29" y="21" type="line"/>
      <point x="-78" y="-60" type="line"/>
      <point x="-6" y="-71"/>
      <point x="52" y="-107"/>
      <point x="52" y="-143" type="qcurve"/>
      <point x="52" y="-185"/>
      <point x="-4" y="-227"/>
      <point x="-68" y="-242" type="qcurve"/>
      <point x="-100" y="-248"/>
      <point x="-186" y="-260"/>
      <point x="-240" y="-265" type="qcurve"/>
      <point x="-240" y="-211" type="line"/>
      <point x="-202" y="-208"/>
      <point x="-143" y="-201"/>
      <point x="-121" y="-198" type="qcurve"/>
      <point x="-66" y="-190"/>
      <point x="-22" y="-170"/>
      <point x="-22" y="-150" type="qcurve"/>
      <point x="-22" y="-132"/>
      <point x="-78" y="-114"/>
      <point x="-151" y="-107" type="qcurve"/>
    </contour>
  </outline>
</glyph>
<glyph name="ogonekcmb" format="2">
  <unicode hex="0328"/>
  <outline>
    <contour>
      <point x="-224" y="-169" type="qcurve"/>
      <point x="-224" y="-134"/>
      <point x="-151" y="-50"/>
      <point x="-59" y="27" type="qcurve"/>
      <point x="-31" y="10" type="line"/>
      <point x="-90" y="-49"/>
      <point x="-143" y="-121"/>
      <point x="-143" y="-146" type="qcurve"/>
      <point x="-143" y="-159"/>
      <point x="-121" y="-171"/>
      <point x="-94" y="-172" type="qcurve"/>
      <point x="-32" y="-176" type="line"/>
      <point x="-55" y="-235" type="line"/>
      <point x="-129" y="-231" type="line"/>
      <point x="-180" y="-228"/>
      <point x="-224" y="-200"/>
    </contour>
  </outline>
</glyph>
<glyph name="circumflexbelowcmb" format="2">
  <unicode hex="032D"/>
  <outline>
    <contour>
      <point x="-77" y="-75" type="line"/>
      <point x="41" y="-251" type="line"/>
      <point x="-1" y="-280" type="line"/>
      <point x="-112" y="-148" type="line"/>
      <point x="-299" y="-280" type="line"/>
      <point x="-327" y="-241" type="line"/>
      <point x="-121" y="-75" type="line"/>
    </contour>
  </outline>
</glyph>
<glyph name="Hcedilla" format="2">
  <advance width="614"/>
  <unicode hex="1E28"/>
  <outline>
    <contour>
      <point x="26" y="0" type="line"/>
      <point x="213" y="655" type="line"/>
      <point x="300" y="655" type="line"/>
      <point x="217" y="367" type="line"/>
      <point x="473" y="367" type="line"/>
      <point x="556" y="655" type="line"/>
      <point x="643" y="655" type="line"/>
      <point x="455" y="0" type="line"/>
      <point x="368" y="0" type="line"/>
      <point x="452" y="294" type="line"/>
      <point x="196" y="294" type="line"/>
      <point x="112" y="0" type="line"/>
      <point x="94" y="0" type="line"/>
      <point x="58" y="-60" type="line"/>
      <point x="130" y="-71"/>
      <point x="188" y="-107"/>
      <point x="188" y="-143" type="qcurve"/>
      <point x="188" y="-186"/>
      <point x="133" y="-227"/>
      <point x="68" y="-242" type="qcurve"/>
      <point x="36" y="-249"/>
      <point x="-49" y="-260"/>
      <point x="-103" y="-265" type="qcurve"/>
      <point x="-103" y="-211" type="line"/>
      <point x="-65" y="-208"/>
      <point x="-7" y="-201"/>
      <point x="16" y="-198" type="qcurve"/>
      <point x="70" y="-190"/>
      <point x="114" y="-171"/>
      <point x="114" y="-150" type="qcurve"/>
      <point x="114" y="-132"/>
      <point x="58" y="-114"/>
      <point x="-14" y="-107" type="qcurve"/>
      <point x="-17" y="-97" type="line"/>
      <point x="45" y="0" type="line"/>
    </contour>
  </outline>
</glyph>
<glyph name="uni1E9E" format="2">
  <advance width="614"/>
  <unicode hex="1E9E"/>
  <outline>
    <contour>
      <point x="465" y="176" type="qcurve"/>
      <point x="465" y="205"/>
      <point x="416" y="269"/>
      <point x="352" y="324" type="qcurve"/>
      <point x="360" y="350" type="line"/>
      <point x="539" y="558" type="line"/>
      <point x="507" y="579"/>
      <point x="450" y="598"/>
      <point x="416" y="598" type="qcurve"/>
      <point x="348" y="598"/>
      <point x="256" y="516"/>
      <point x="232" y="433" type="qcurve"/>
      <point x="108" y="0" type="line"/>
      <point x="21" y="0" type="line"/>
      <point x="147" y="439" type="line"/>
      <point x="180" y="557"/>
      <point x="312" y="670"/>
      <point x="416" y="670" type="qcurve"/>
      <point x="477" y="670"/>
      <point x="585" y="627"/>
      <point x="636" y="583" type="qcurve"/>
      <point x="637" y="565" type="line"/>
      <point x="445" y="342" type="line"/>
      <point x="502" y="291"/>
      <point x="551" y="215"/>
      <point x="552" y="174" type="qcurve"/>
      <point x="552" y="94"/>
      <point x="439" y="-6"/>
      <point x="344" y="-6" type="qcurve"/>
      <point x="320" y="-6"/>
      <point x="276" y="-1"/>
      <point x="257" y="4" type="qcurve"/>
      <point x="275" y="74" type="line"/>
      <point x="294" y="69"/>
      <point x="330" y="65"/>
      <point x="351" y="65" type="qcurve"/>
      <point x="402" y="65"/>
      <point x="465" y="128"/>
    </contour>
  </outline>
</glyph>
<glyph name="endash" format="2">
  <advance width="614"/>
  <unicode hex="2013"/>
  <outline>
    <contour>
      <point x="82" y="239" type="line"/>
      <point x="105" y="321" type="line"/>
      <point x="559" y="321" type="line"/>
      <point x="536" y="239" type="line"/>
    </contour>
  </outline>
</glyph>
<glyph name="quoteleft" format="2">
  <advance width="614"/>
  <unicode hex="2018"/>
  <outline>
    <contour>
      <point x="496" y="710" type="qcurve"/>
      <point x="580" y="710" type="line"/>
      <point x="579" y="708" type="line"/>
      <point x="500" y="633"/>
      <point x="418" y="514"/>
      <point x="392" y="433" type="qcurve"/>
      <point x="259" y="433" type="line"/>
      <point x="292" y="524"/>
      <point x="395" y="645"/>
    </contour>
  </outline>
</glyph>
<glyph name="quotedblleft" format="2">
  <advance width="614"/>
  <unicode hex="201C"/>
  <outline>
    <contour>
      <point x="367" y="710" type="qcurve"/>
      <point x="443" y="710" type="line"/>
      <point x="443" y="708" type="line"/>
      <point x="360" y="623"/>
      <point x="293" y="524"/>
      <point x="255" y="425" type="qcurve"/>
      <point x="132" y="425" type="line"/>
      <point x="178" y="533"/>
      <point x="267" y="640"/>
    </contour>
    <contour>
      <point x="617" y="710" type="qcurve"/>
      <point x="694" y="710" type="line"/>
      <point x="694" y="708" type="line"/>
      <point x="612" y="624"/>
      <point x="545" y="526"/>
      <point x="506" y="425" type="qcurve"/>
      <point x="383" y="425" type="line"/>
      <point x="429" y="535"/>
      <point x="519" y="641"/>
    </contour>
  </outline>
</glyph>
<glyph name="dagger" format="2">
  <advance width="614"/>
  <unicode hex="2020"/>
  <outline>
    <contour>
      <point x="618" y="522" type="qcurve"/>
      <point x="592" y="430" type="line"/>
      <point x="572" y="430"/>
      <point x="526" y="436"/>
      <point x="481" y="445" type="qcurve"/>
      <point x="446" y="452"/>
      <point x="410" y="458"/>
      <point x="394" y="459" type="qcurve"/>
      <point x="383" y="420"/>
      <point x="362" y="328"/>
      <point x="343" y="235" type="qcurve"/>
      <point x="323" y="138"/>
      <point x="300" y="41"/>
      <point x="288" y="0" type="qcurve"/>
      <point x="186" y="0" type="line"/>
      <point x="198" y="41"/>
      <point x="231" y="139"/>
      <point x="267" y="236" type="qcurve"/>
      <point x="302" y="328"/>
      <point x="333" y="420"/>
      <point x="345" y="459" type="qcurve"/>
      <point x="328" y="458"/>
      <point x="287" y="452"/>
      <point x="245" y="445" type="qcurve"/>
      <point x="194" y="436"/>
      <point x="147" y="430"/>
      <point x="128" y="430" type="qcurve"/>
      <point x="154" y="522" type="line"/>
      <point x="173" y="522"/>
      <point x="217" y="517"/>
      <point x="262" y="509" type="qcurve"/>
      <point x="300" y="502"/>
      <point x="339" y="497"/>
      <point x="355" y="496" type="qcurve"/>
      <point x="359" y="513"/>
      <point x="366" y="554"/>
      <point x="370" y="595" type="qcurve"/>
      <point x="376" y="643"/>
      <point x="384" y="690"/>
      <point x="390" y="710" type="qcurve"/>
      <point x="492" y="710" type="line"/>
      <point x="486" y="689"/>
      <point x="467" y="640"/>
      <point x="444" y="590" type="qcurve"/>
      <point x="427" y="551"/>
      <point x="411" y="512"/>
      <point x="405" y="496" type="qcurve"/>
      <point x="421" y="497"/>
      <point x="459" y="502"/>
      <point x="497" y="508" type="qcurve"/>
      <point x="548" y="517"/>
      <point x="597" y="522"/>
    </contour>
  </outline>
</glyph>
<glyph name="daggerdbl" format="2">
  <advance width="614"/>
  <unicode hex="2021"/>
  <outline>
    <contour>
      <point x="534" y="282" type="qcurve"/>
      <point x="508" y="190" type="line"/>
      <point x="488" y="190"/>
      <point x="444" y="196"/>
      <point x="402" y="205" type="qcurve"/>
      <point x="370" y="212"/>
      <point x="339" y="218"/>
      <point x="325" y="219" type="qcurve"/>
      <point x="321" y="201"/>
      <point x="313" y="158"/>
      <point x="307" y="116" type="qcurve"/>
      <point x="300" y="68"/>
      <point x="291" y="20"/>
      <point x="285" y="0" type="qcurve"/>
      <point x="189" y="0" type="line"/>
      <point x="195" y="21"/>
      <point x="213" y="69"/>
      <point x="235" y="117" type="qcurve"/>
      <point x="254" y="159"/>
      <point x="270" y="201"/>
      <point x="276" y="219" type="qcurve"/>
      <point x="261" y="218"/>
      <point x="225" y="212"/>
      <point x="189" y="205" type="qcurve"/>
      <point x="141" y="196"/>
      <point x="95" y="190"/>
      <point x="75" y="190" type="qcurve"/>
      <point x="101" y="282" type="line"/>
      <point x="121" y="282"/>
      <point x="165" y="277"/>
      <point x="208" y="268" type="qcurve"/>
      <point x="240" y="262"/>
      <point x="273" y="257"/>
      <point x="287" y="256" type="qcurve"/>
      <point x="345" y="459" type="line"/>
      <point x="328" y="458"/>
      <point x="289" y="452"/>
      <point x="248" y="445" type="qcurve"/>
      <point x="198" y="436"/>
      <point x="148" y="430"/>
      <point x="128" y="430" type="qcurve"/>
      <point x="154" y="522" type="line"/>
      <point x="175" y="522"/>
      <point x="222" y="517"/>
      <point x="267" y="508" type="qcurve"/>
      <point x="303" y="502"/>
      <point x="339" y="497"/>
      <point x="355" y="496" type="qcurve"/>
      <point x="359" y="513"/>
      <point x="365" y="553"/>
      <point x="370" y="593" type="qcurve"/>
      <point x="375" y="642"/>
      <point x="384" y="690"/>
      <point x="390" y="710" type="qcurve"/>
      <point x="492" y="710" type="line"/>
      <point x="486" y="689"/>
      <point x="467" y="640"/>
      <point x="444" y="591" type="qcurve"/>
      <point x="426" y="552"/>
      <point x="410" y="513"/>
      <point x="404" y="496" type="qcurve"/>
      <point x="420" y="497"/>
      <point x="459" y="502"/>
      <point x="499" y="509" type="qcurve"/>
      <point x="549" y="517"/>
      <point x="598" y="522"/>
      <point x="618" y="522" type="qcurve"/>
      <point x="592" y="430" type="line"/>
      <point x="573" y="430"/>
      <point x="529" y="436"/>
      <point x="484" y="445" type="qcurve"/>
      <point x="447" y="452"/>
      <point x="409" y="458"/>
      <point x="393" y="459" type="qcurve"/>
      <point x="335" y="256" type="line"/>
      <point x="350" y="257"/>
      <point x="385" y="262"/>
      <point x="421" y="268" type="qcurve"/>
      <point x="468" y="277"/>
      <point x="515" y="282"/>
    </contour>
  </outline>
</glyph>
<glyph name="twodotleader" format="2">
  <advance width="614"/>
  <unicode hex="2025"/>
  <outline>
    <contour>
      <point x="185" y="96" type="qcurve"/>
      <point x="185" y="50"/>
      <point x="131" y="-15"/>
      <point x="90" y="-15" type="qcurve"/>
      <point x="58" y="-15"/>
      <point x="27" y="11"/>
      <point x="27" y="37" type="qcurve"/>
      <point x="27" y="82"/>
      <point x="81" y="147"/>
      <point x="122" y="147" type="qcurve"/>
      <point x="153" y="147"/>
      <point x="185" y="121"/>
    </contour>
    <contour>
      <point x="492" y="96" type="qcurve"/>
      <point x="492" y="50"/>
      <point x="438" y="-15"/>
      <point x="397" y="-15" type="qcurve"/>
      <point x="365" y="-15"/>
      <point x="334" y="11"/>
      <point x="334" y="37" type="qcurve"/>
      <point x="334" y="82"/>
      <point x="389" y="147"/>
      <point x="430" y="147" type="qcurve"/>
      <point x="460" y="147"/>
      <point x="492" y="121"/>
    </contour>
  </outline>
</glyph>
<glyph name="ellipsis" format="2">
  <advance width="614"/>
  <unicode hex="2026"/>
  <outline>
    <contour>
      <point x="66" y="134" type="qcurve"/>
      <point x="94" y="134"/>
      <point x="120" y="113"/>
      <point x="120" y="90" type="qcurve"/>
      <point x="120" y="46"/>
      <point x="76" y="-15"/>
      <point x="41" y="-15" type="qcurve"/>
      <point x="13" y="-15"/>
      <point x="-14" y="8"/>
      <point x="-14" y="31" type="qcurve"/>
      <point x="-14" y="74"/>
      <point x="31" y="134"/>
    </contour>
    <contour>
      <point x="271" y="134" type="qcurve"/>
      <point x="299" y="134"/>
      <point x="325" y="113"/>
      <point x="325" y="90" type="qcurve"/>
      <point x="325" y="46"/>
      <point x="281" y="-15"/>
      <point x="246" y="-15" type="qcurve"/>
      <point x="218" y="-15"/>
      <point x="191" y="8"/>
      <point x="191" y="31" type="qcurve"/>
      <point x="191" y="74"/>
      <point x="236" y="134"/>
    </contour>
    <contour>
      <point x="476" y="134" type="qcurve"/>
      <point x="504" y="134"/>
      <point x="530" y="113"/>
      <point x="530" y="90" type="qcurve"/>
      <point x="530" y="46"/>
      <point x="486" y="-15"/>
      <point x="451" y="-15" type="qcurve"/>
      <point x="423" y="-15"/>
      <point x="396" y="8"/>
      <point x="396" y="31" type="qcurve"/>
      <point x="396" y="74"/>
      <point x="441" y="134"/>
    </contour>
  </outline>
</glyph>
<glyph name="guilsinglright" format="2">
  <advance width="614"/>
  <unicode hex="203A"/>
  <outline>
    <contour>
      <point x="473" y="266" type="line"/>
      <point x="453" y="195" type="line"/>
      <point x="101" y="-15" type="line"/>
      <point x="127" y="79" type="line"/>
      <point x="368" y="237" type="line"/>
      <point x="219" y="400" type="line"/>
      <point x="243" y="478" type="line"/>
    </contour>
  </outline>
</glyph>
<glyph name="dong" format="2">
  <advance width="614"/>
  <unicode hex="20AB"/>
  <outline>
    <contour>
      <point x="448" y="0" type="line"/>
      <point x="382" y="0" type="line"/>
      <point x="391" y="80" type="line"/>
      <point x="340" y="33"/>
      <point x="253" y="-8"/>
      <point x="206" y="-8" type="qcurve"/>
      <point x="133" y="-8"/>
      <point x="46" y="76"/>
      <point x="46" y="148" type="qcurve"/>
      <point x="46" y="267"/>
      <point x="221" y="422"/>
      <point x="360" y="422" type="qcurve"/>
      <point x="390" y="422"/>
      <point x="448" y="413"/>
      <point x="478" y="404" type="qcurve"/>
      <point x="507" y="505" type="line"/>
      <point x="330" y="505" type="line"/>
      <point x="346" y="562" type="line"/>
      <point x="523" y="562" type="line"/>
      <point x="550" y="655" type="line"/>
      <point x="636" y="655" type="line"/>
      <point x="609" y="562" type="line"/>
      <point x="693" y="562" type="line"/>
      <point x="676" y="505" type="line"/>
      <point x="593" y="505" type="line"/>
    </contour>
    <contour>
      <point x="363" y="355" type="qcurve"/>
      <point x="262" y="355"/>
      <point x="136" y="241"/>
      <point x="136" y="158" type="qcurve"/>
      <point x="136" y="115"/>
      <point x="189" y="62"/>
      <point x="231" y="62" type="qcurve"/>
      <point x="272" y="62"/>
      <point x="348" y="104"/>
      <point x="407" y="157" type="qcurve"/>
      <point x="458" y="336" type="line"/>
      <point x="438" y="345"/>
      <point x="390" y="355"/>
    </contour>
    <contour>
      <point x="395" y="-152" type="line"/>
      <point x="-26" y="-152" type="line"/>
      <point x="-8" y="-92" type="line"/>
      <point x="413" y="-92" type="line"/>
    </contour>
  </outline>
</glyph>
<glyph name="peso" format="2">
  <advance width="614"/>
  <unicode hex="20B1"/>
  <outline>
    <contour>
      <point x="160" y="417" type="line"/>
      <point x="69" y="417" type="line"/>
      <point x="85" y="474" type="line"/>
      <point x="176" y="474" type="line"/>
      <point x="228" y="655" type="line"/>
      <point x="398" y="655" type="line"/>
      <point x="487" y="655"/>
      <point x="589" y="567"/>
      <point x="589" y="492" type="qcurve"/>
      <point x="589" y="485"/>
      <point x="589" y="477"/>
      <point x="588" y="474" type="qcurve"/>
      <point x="670" y="474" type="line"/>
      <point x="654" y="417" type="line"/>
      <point x="579" y="417" type="line"/>
      <point x="555" y="328"/>
      <point x="394" y="229"/>
      <point x="274" y="229" type="qcurve"/>
      <point x="192" y="229" type="line"/>
      <point x="127" y="0" type="line"/>
      <point x="40" y="0" type="line"/>
    </contour>
    <contour>
      <point x="498" y="492" type="qcurve"/>
      <point x="498" y="537"/>
      <point x="437" y="583"/>
      <point x="378" y="583" type="qcurve"/>
      <point x="294" y="583" type="line"/>
      <point x="260" y="466" type="line"/>
      <point x="497" y="466" type="line"/>
      <point x="498" y="470"/>
      <point x="498" y="481"/>
    </contour>
    <contour>
      <point x="213" y="300" type="line"/>
      <point x="282" y="300" type="line"/>
      <point x="360" y="300"/>
      <point x="467" y="365"/>
      <point x="487" y="424" type="qcurve"/>
      <point x="248" y="424" type="line"/>
    </contour>
  </outline>
</glyph>
<glyph name="servicemark" format="2">
  <advance width="614"/>
  <unicode hex="2120"/>
  <outline>
    <contour>
      <point x="211" y="441" type="qcurve"/>
      <point x="240" y="441"/>
      <point x="273" y="467"/>
      <point x="273" y="491" type="qcurve"/>
      <point x="273" y="505"/>
      <point x="258" y="523"/>
      <point x="238" y="534" type="qcurve"/>
      <point x="199" y="555" type="line"/>
      <point x="174" y="568"/>
      <point x="150" y="603"/>
      <point x="150" y="628" type="qcurve"/>
      <point x="150" y="667"/>
      <point x="209" y="716"/>
      <point x="258" y="716" type="qcurve"/>
      <point x="286" y="716"/>
      <point x="332" y="708"/>
      <point x="363" y="696" type="qcurve"/>
      <point x="348" y="654" type="line"/>
      <point x="322" y="663"/>
      <point x="279" y="672"/>
      <point x="258" y="672" type="qcurve"/>
      <point x="231" y="672"/>
      <point x="201" y="650"/>
      <point x="201" y="631" type="qcurve"/>
      <point x="201" y="619"/>
      <point x="213" y="604"/>
      <point x="227" y="596" type="qcurve"/>
      <point x="266" y="576" type="line"/>
      <point x="298" y="558"/>
      <point x="323" y="522"/>
      <point x="323" y="493" type="qcurve"/>
      <point x="323" y="448"/>
      <point x="263" y="396"/>
      <point x="211" y="396" type="qcurve"/>
      <point x="181" y="396"/>
      <point x="123" y="411"/>
      <point x="87" y="429" type="qcurve"/>
      <point x="106" y="471" type="line"/>
      <point x="137" y="456"/>
      <point x="188" y="441"/>
    </contour>
    <contour>
      <point x="616" y="710" type="line"/>
      <point x="688" y="710" type="line"/>
      <point x="612" y="403" type="line"/>
      <point x="564" y="403" type="line"/>
      <point x="637" y="675" type="line"/>
      <point x="514" y="493" type="line"/>
      <point x="501" y="493" type="line"/>
      <point x="481" y="668" type="line"/>
      <point x="399" y="403" type="line"/>
      <point x="351" y="403" type="line"/>
      <point x="451" y="710" type="line"/>
      <point x="516" y="710" type="line"/>
      <point x="531" y="586" type="line"/>
    </contour>
  </outline>
</glyph>
<glyph name="minus" format="2">
  <advance width="614"/>
  <unicode hex="2212"/>
  <outline>
    <contour>
      <point x="561" y="292" type="line"/>
      <point x="87" y="292" type="line"/>
      <point x="107" y="363" type="line"/>
      <point x="582" y="363" type="line"/>
    </contour>
  </outline>
</glyph>
<glyph name="notequal" format="2">
  <advance width="614"/>
  <unicode hex="2260"/>
  <outline>
    <contour>
      <point x="190" y="194" type="line"/>
      <point x="75" y="194" type="line"/>
      <point x="95" y="266" type="line"/>
      <point x="249" y="264" type="line"/>
      <point x="310" y="336" type="line"/>
      <point x="356" y="393" type="line"/>
      <point x="131" y="390" type="line"/>
      <point x="151" y="461" type="line"/>
      <point x="411" y="461" type="line"/>
      <point x="535" y="614" type="line"/>
      <point x="613" y="614" type="line"/>
      <point x="482" y="461" type="line"/>
      <point x="593" y="461" type="line"/>
      <point x="573" y="390" type="line"/>
      <point x="424" y="392" type="line"/>
      <point x="375" y="335" type="line"/>
      <point x="317" y="263" type="line"/>
      <point x="537" y="266" type="line"/>
      <point x="517" y="194" type="line"/>
      <point x="262" y="194" type="line"/>
      <point x="146" y="50" type="line"/>
      <point x="68" y="50" type="line"/>
    </contour>
  </outline>
</glyph>
<glyph name="lessequal" format="2">
  <advance width="614"/>
  <unicode hex="2264"/>
  <outline>
    <contour>
      <point x="136" y="398" type="line"/>
      <point x="158" y="476" type="line"/>
      <point x="643" y="670" type="line"/>
      <point x="619" y="585" type="line"/>
      <point x="223" y="433" type="line"/>
      <point x="531" y="279" type="line"/>
      <point x="510" y="204" type="line"/>
    </contour>
    <contour>
      <point x="452" y="0" type="line"/>
      <point x="22" y="0" type="line"/>
      <point x="42" y="71" type="line"/>
      <point x="472" y="71" type="line"/>
    </contour>
  </outline>
</glyph>
<glyph name="acutecmb.cap" format="2">
  <outline>
    <contour>
      <point x="87" y="731" type="line"/>
      <point x="63" y="780" type="line"/>
      <point x="327" y="922" type="line"/>
      <point x="356" y="859" type="line"/>
    </contour>
  </outline>
</glyph>
<glyph name="breveacute.cap" format="2">
  <outline>
    <contour>
      <point x="414" y="1007" type="line"/>
      <point x="142" y="894" type="line"/>
      <point x="121" y="943" type="line"/>
      <point x="388" y="1070" type="line"/>
    </contour>
    <contour>
      <point x="158" y="795" type="qcurve"/>
      <point x="206" y="795"/>
      <point x="284" y="845"/>
      <point x="317" y="897" type="qcurve"/>
      <point x="371" y="872" type="line"/>
      <point x="330" y="800"/>
      <point x="225" y="731"/>
      <point x="155" y="731" type="qcurve"/>
      <point x="78" y="731"/>
      <point x="6" y="805"/>
      <point x="6" y="884" type="qcurve"/>
      <point x="58" y="900" type="line"/>
      <point x="61" y="846"/>
      <point x="110" y="795"/>
    </contour>
  </outline>
</glyph>
<glyph name="brevehook.cap" format="2">
  <outline>
    <contour>
      <point x="325" y="995" type="qcurve"/>
      <point x="325" y="955"/>
      <point x="232" y="910"/>
      <point x="120" y="895" type="qcurve"/>
      <point x="113" y="935" type="line"/>
      <point x="114" y="937" type="line"/>
      <point x="185" y="949"/>
      <point x="243" y="969"/>
      <point x="243" y="985" type="qcurve"/>
      <point x="243" y="997"/>
      <point x="180" y="1016"/>
      <point x="96" y="1030" type="qcurve"/>
      <point x="96" y="1032" type="line"/>
      <point x="149" y="1079" type="line"/>
      <point x="242" y="1065"/>
      <point x="325" y="1025"/>
    </contour>
    <contour>
      <point x="158" y="795" type="qcurve"/>
      <point x="206" y="795"/>
      <point x="283" y="845"/>
      <point x="316" y="897" type="qcurve"/>
      <point x="371" y="872" type="line"/>
      <point x="330" y="800"/>
      <point x="225" y="731"/>
      <point x="155" y="731" type="qcurve"/>
      <point x="78" y="731"/>
      <point x="6" y="805"/>
      <point x="6" y="884" type="qcurve"/>
      <point x="58" y="900" type="line"/>
      <point x="61" y="846"/>
      <point x="110" y="795"/>
    </contour>
  </outline>
</glyph>
<glyph name="brevehook" format="2">
  <outline>
    <contour>
      <point x="291" y="842" type="qcurve"/>
      <point x="291" y="802"/>
      <point x="183" y="748"/>
      <point x="74" y="732" type="qcurve"/>
      <point x="65" y="773" type="line"/>
      <point x="66" y="775" type="line"/>
      <point x="143" y="791"/>
      <point x="208" y="817"/>
      <point x="208" y="835" type="qcurve"/>
      <point x="208" y="849"/>
      <point x="147" y="870"/>
      <point x="76" y="882" type="qcurve"/>
      <point x="76" y="885" type="line"/>
      <point x="128" y="929" type="line"/>
      <point x="215" y="915"/>
      <point x="291" y="875"/>
    </contour>
    <contour>
      <point x="103" y="605" type="qcurve"/>
      <point x="149" y="605"/>
      <point x="228" y="664"/>
      <point x="268" y="728" type="qcurve"/>
      <point x="323" y="705" type="line"/>
      <point x="277" y="621"/>
      <point x="166" y="541"/>
      <point x="96" y="541" type="qcurve"/>
      <point x="22" y="541"/>
      <point x="-44" y="625"/>
      <point x="-44" y="716" type="qcurve"/>
      <point x="8" y="728" type="line"/>
      <point x="12" y="664"/>
      <point x="58" y="605"/>
    </contour>
  </outline>
</glyph>
<glyph name="brevetilde.cap" format="2">
  <outline>
    <contour>
      <point x="155" y="1083" type="qcurve"/>
      <point x="176" y="1083"/>
      <point x="208" y="1062"/>
      <point x="232" y="1036" type="qcurve"/>
      <point x="256" y="1012"/>
      <point x="274" y="999"/>
      <point x="283" y="999" type="qcurve"/>
      <point x="301" y="999"/>
      <point x="342" y="1043"/>
      <point x="377" y="1094" type="qcurve"/>
      <point x="421" y="1067" type="line"/>
      <point x="374" y="994"/>
      <point x="315" y="934"/>
      <point x="284" y="934" type="qcurve"/>
      <point x="262" y="934"/>
      <point x="229" y="955"/>
      <point x="205" y="981" type="qcurve"/>
      <point x="180" y="1006"/>
      <point x="163" y="1018"/>
      <point x="154" y="1018" type="qcurve"/>
      <point x="140" y="1018"/>
      <point x="104" y="980"/>
      <point x="70" y="932" type="qcurve"/>
      <point x="26" y="956" type="line"/>
      <point x="72" y="1027"/>
      <point x="127" y="1083"/>
    </contour>
    <contour>
      <point x="158" y="795" type="qcurve"/>
      <point x="206" y="795"/>
      <point x="283" y="845"/>
      <point x="316" y="897" type="qcurve"/>
      <point x="371" y="872" type="line"/>
      <point x="330" y="800"/>
      <point x="225" y="731"/>
      <point x="155" y="731" type="qcurve"/>
      <point x="78" y="731"/>
      <point x="6" y="805"/>
      <point x="6" y="884" type="qcurve"/>
      <point x="58" y="900" type="line"/>
      <point x="61" y="846"/>
      <point x="110" y="795"/>
    </contour>
  </outline>
</glyph>
<glyph name="brevetilde" format="2">
  <outline>
    <contour>
      <point x="115" y="917" type="qcurve"/>
      <point x="132" y="917"/>
      <point x="163" y="896"/>
      <point x="190" y="866" type="qcurve"/>
      <point x="214" y="841"/>
      <point x="230" y="828"/>
      <point x="239" y="828" type="qcurve"/>
      <point x="254" y="828"/>
      <point x="294" y="873"/>
      <point x="328" y="924" type="qcurve"/>
      <point x="377" y="899" type="line"/>
      <point x="327" y="823"/>
      <point x="264" y="762"/>
      <point x="233" y="762" type="qcurve"/>
      <point x="215" y="762"/>
      <point x="186" y="782"/>
      <point x="159" y="812" type="qcurve"/>
      <point x="130" y="842"/>
      <point x="117" y="851"/>
      <point x="110" y="851" type="qcurve"/>
      <point x="95" y="851"/>
      <point x="58" y="810"/>
      <point x="27" y="763" type="qcurve"/>
      <point x="-19" y="789" type="line"/>
      <point x="27" y="860"/>
      <point x="85" y="917"/>
    </contour>
    <contour>
      <point x="103" y="605" type="qcurve"/>
      <point x="149" y="605"/>
      <point x="228" y="664"/>
      <point x="268" y="728" type="qcurve"/>
      <point x="323" y="705" type="line"/>
      <point x="277" y="621"/>
      <point x="166" y="541"/>
      <point x="96" y="541" type="qcurve"/>
      <point x="22" y="541"/>
      <point x="-44" y="625"/>
      <point x="-44" y="716" type="qcurve"/>
      <point x="8" y="728" type="line"/>
      <point x="12" y="664"/>
      <point x="58" y="605"/>
    </contour>
  </outline>
</glyph>
<glyph name="caroncmb.cap" format="2">
  <outline>
    <contour>
      <point x="126" y="731" type="line"/>
      <point x="-8" y="882" type="line"/>
      <point x="32" y="920" type="line"/>
      <point x="154" y="803" type="line"/>
      <point x="341" y="920" type="line"/>
      <point x="367" y="878" type="line"/>
      <point x="164" y="731" type="line"/>
    </contour>
  </outline>
</glyph>
<glyph name="circumflexacute" format="2">
  <outline>
    <contour>
      <point x="262" y="712" type="line"/>
      <point x="239" y="755" type="line"/>
      <point x="418" y="867" type="line"/>
      <point x="449" y="810" type="line"/>
    </contour>
    <contour>
      <point x="-61" y="541" type="line"/>
      <point x="-86" y="582" type="line"/>
      <point x="113" y="733" type="line"/>
      <point x="157" y="733" type="line"/>
      <point x="281" y="572" type="line"/>
      <point x="238" y="541" type="line"/>
      <point x="123" y="661" type="line"/>
    </contour>
  </outline>
</glyph>
<glyph name="circumflexcmb.cap" format="2">
  <outline>
    <contour>
      <point x="-11" y="732" type="line"/>
      <point x="-36" y="774" type="line"/>
      <point x="166" y="921" type="line"/>
      <point x="204" y="921" type="line"/>
      <point x="339" y="770" type="line"/>
      <point x="298" y="732" type="line"/>
      <point x="176" y="848" type="line"/>
    </contour>
  </outline>
</glyph>
<glyph name="circumflexgrave" format="2">
  <outline>
    <contour>
      <point x="254" y="863" type="line"/>
      <point x="363" y="742" type="line"/>
      <point x="325" y="707" type="line"/>
      <point x="202" y="814" type="line"/>
    </contour>
    <contour>
      <point x="-61" y="541" type="line"/>
      <point x="-86" y="582" type="line"/>
      <point x="113" y="733" type="line"/>
      <point x="157" y="733" type="line"/>
      <point x="281" y="572" type="line"/>
      <point x="238" y="541" type="line"/>
      <point x="123" y="662" type="line"/>
    </contour>
  </outline>
</glyph>
<glyph name="circumflexhook.cap" format="2">
  <outline>
    <contour>
      <point x="493" y="995" type="qcurve"/>
      <point x="493" y="955"/>
      <point x="400" y="910"/>
      <point x="289" y="895" type="qcurve"/>
      <point x="281" y="935" type="line"/>
      <point x="282" y="937" type="line"/>
      <point x="354" y="949"/>
      <point x="412" y="970"/>
      <point x="412" y="985" type="qcurve"/>
      <point x="412" y="997"/>
      <point x="349" y="1016"/>
      <point x="265" y="1030" type="qcurve"/>
      <point x="265" y="1032" type="line"/>
      <point x="317" y="1079" type="line"/>
      <point x="410" y="1065"/>
      <point x="493" y="1025"/>
    </contour>
    <contour>
      <point x="-11" y="732" type="line"/>
      <point x="-34" y="776" type="line"/>
      <point x="164" y="904" type="line"/>
      <point x="202" y="904" type="line"/>
      <point x="339" y="769" type="line"/>
      <point x="298" y="732" type="line"/>
      <point x="172" y="833" type="line"/>
    </contour>
  </outline>
</glyph>
<glyph name="circumflexhook" format="2">
  <outline>
    <contour>
      <point x="464" y="823" type="qcurve"/>
      <point x="464" y="783"/>
      <point x="356" y="729"/>
      <point x="247" y="713" type="qcurve"/>
      <point x="238" y="756" type="line"/>
      <point x="239" y="758" type="line"/>
      <point x="317" y="774"/>
      <point x="381" y="799"/>
      <point x="381" y="816" type="qcurve"/>
      <point x="381" y="830"/>
      <point x="320" y="851"/>
      <point x="249" y="863" type="qcurve"/>
      <point x="249" y="866" type="line"/>
      <point x="301" y="910" type="line"/>
      <point x="388" y="896"/>
      <point x="464" y="856"/>
    </contour>
    <contour>
      <point x="-61" y="541" type="line"/>
      <point x="-86" y="582" type="line"/>
      <point x="113" y="733" type="line"/>
      <point x="157" y="733" type="line"/>
      <point x="281" y="572" type="line"/>
      <point x="238" y="541" type="line"/>
      <point x="123" y="662" type="line"/>
    </contour>
  </outline>
</glyph>
<glyph name="circumflextilde.cap" format="2">
  <outline>
    <contour>
      <point x="168" y="1085" type="qcurve"/>
      <point x="189" y="1085"/>
      <point x="220" y="1065"/>
      <point x="246" y="1038" type="qcurve"/>
      <point x="269" y="1014"/>
      <point x="288" y="1000"/>
      <point x="297" y="1000" type="qcurve"/>
      <point x="314" y="1000"/>
      <point x="354" y="1043"/>
      <point x="391" y="1096" type="qcurve"/>
      <point x="435" y="1068" type="line"/>
      <point x="387" y="994"/>
      <point x="328" y="935"/>
      <point x="298" y="935" type="qcurve"/>
      <point x="277" y="935"/>
      <point x="243" y="956"/>
      <point x="218" y="982" type="qcurve"/>
      <point x="196" y="1006"/>
      <point x="177" y="1020"/>
      <point x="168" y="1020" type="qcurve"/>
      <point x="153" y="1020"/>
      <point x="116" y="980"/>
      <point x="84" y="933" type="qcurve"/>
      <point x="39" y="958" type="line"/>
      <point x="85" y="1029"/>
      <point x="140" y="1085"/>
    </contour>
    <contour>
      <point x="-11" y="732" type="line"/>
      <point x="-34" y="776" type="line"/>
      <point x="164" y="904" type="line"/>
      <point x="202" y="904" type="line"/>
      <point x="339" y="769" type="line"/>
      <point x="298" y="732" type="line"/>
      <point x="172" y="833" type="line"/>
    </contour>
  </outline>
</glyph>
<glyph name="circumflextilde" format="2">
  <outline>
    <contour>
      <point x="114" y="915" type="qcurve"/>
      <point x="132" y="915"/>
      <point x="163" y="894"/>
      <point x="189" y="865" type="qcurve"/>
      <point x="215" y="837"/>
      <point x="230" y="826"/>
      <point x="238" y="826" type="qcurve"/>
      <point x="253" y="826"/>
      <point x="293" y="870"/>
      <point x="328" y="922" type="qcurve"/>
      <point x="376" y="898" type="line"/>
      <point x="327" y="821"/>
      <point x="265" y="760"/>
      <point x="233" y="760" type="qcurve"/>
      <point x="215" y="760"/>
      <point x="185" y="780"/>
      <point x="158" y="810" type="qcurve"/>
      <point x="135" y="836"/>
      <point x="118" y="849"/>
      <point x="109" y="849" type="qcurve"/>
      <point x="94" y="849"/>
      <point x="57" y="809"/>
      <point x="27" y="762" type="qcurve"/>
      <point x="-20" y="788" type="line"/>
      <point x="27" y="859"/>
      <point x="85" y="915"/>
    </contour>
    <contour>
      <point x="-61" y="541" type="line"/>
      <point x="-86" y="582" type="line"/>
      <point x="113" y="733" type="line"/>
      <point x="157" y="733" type="line"/>
      <point x="281" y="572" type="line"/>
      <point x="238" y="541" type="line"/>
      <point x="123" y="662" type="line"/>
    </contour>
  </outline>
</glyph>
<glyph name="dieresisacute.cap" format="2">
  <outline>
    <contour>
      <point x="417" y="1009" type="line"/>
      <point x="146" y="896" type="line"/>
      <point x="125" y="944" type="line"/>
      <point x="392" y="1071" type="line"/>
    </contour>
    <contour>
      <point x="97" y="822" type="qcurve"/>
      <point x="97" y="791"/>
      <point x="56" y="751"/>
      <point x="24" y="751" type="qcurve"/>
      <point x="-1" y="751"/>
      <point x="-28" y="771"/>
      <point x="-28" y="790" type="qcurve"/>
      <point x="-28" y="819"/>
      <point x="13" y="861"/>
      <point x="45" y="861" type="qcurve"/>
      <point x="71" y="861"/>
      <point x="97" y="842"/>
    </contour>
    <contour>
      <point x="359" y="822" type="qcurve"/>
      <point x="359" y="791"/>
      <point x="318" y="751"/>
      <point x="286" y="751" type="qcurve"/>
      <point x="261" y="751"/>
      <point x="233" y="771"/>
      <point x="233" y="790" type="qcurve"/>
      <point x="233" y="819"/>
      <point x="275" y="861"/>
      <point x="307" y="861" type="qcurve"/>
      <point x="333" y="861"/>
      <point x="359" y="841"/>
    </contour>
  </outline>
</glyph>
<glyph name="dieresismacron" format="2">
  <outline>
    <contour>
      <point x="297" y="737" type="line"/>
      <point x="-7" y="737" type="line"/>
      <point x="11" y="801" type="line"/>
      <point x="316" y="801" type="line"/>
    </contour>
    <contour>
      <point x="53" y="627" type="qcurve"/>
      <point x="53" y="599"/>
      <point x="14" y="561"/>
      <point x="-18" y="561" type="qcurve"/>
      <point x="-42" y="561"/>
      <point x="-67" y="580"/>
      <point x="-67" y="597" type="qcurve"/>
      <point x="-67" y="624"/>
      <point x="-26" y="663"/>
      <point x="4" y="663" type="qcurve"/>
      <point x="28" y="663"/>
      <point x="53" y="645"/>
    </contour>
    <contour>
      <point x="287" y="627" type="qcurve"/>
      <point x="287" y="598"/>
      <point x="248" y="561"/>
      <point x="217" y="561" type="qcurve"/>
      <point x="193" y="561"/>
      <point x="168" y="580"/>
      <point x="168" y="597" type="qcurve"/>
      <point x="168" y="625"/>
      <point x="209" y="663"/>
      <point x="239" y="663" type="qcurve"/>
      <point x="262" y="663"/>
      <point x="287" y="644"/>
    </contour>
  </outline>
</glyph>
<glyph name="dotaccentcmb.cap" format="2">
  <outline>
    <contour>
      <point x="234" y="830" type="qcurve"/>
      <point x="234" y="795"/>
      <point x="191" y="751"/>
      <point x="156" y="751" type="qcurve"/>
      <point x="128" y="751"/>
      <point x="99" y="774"/>
      <point x="99" y="795" type="qcurve"/>
      <point x="99" y="826"/>
      <point x="145" y="873"/>
      <point x="178" y="873" type="qcurve"/>
      <point x="205" y="873"/>
      <point x="234" y="851"/>
    </contour>
  </outline>
</glyph>
<glyph name="eight.den" format="2">
  <advance width="614"/>
  <outline>
    <contour>
      <point x="430" y="108" type="qcurve"/>
      <point x="430" y="55"/>
      <point x="338" y="-14"/>
      <point x="269" y="-14" type="qcurve"/>
      <point x="205" y="-14"/>
      <point x="130" y="39"/>
      <point x="130" y="86" type="qcurve"/>
      <point x="130" y="129"/>
      <point x="197" y="191"/>
      <point x="252" y="200" type="qcurve"/>
      <point x="252" y="202" type="line"/>
      <point x="225" y="214"/>
      <point x="196" y="254"/>
      <point x="196" y="279" type="qcurve"/>
      <point x="196" y="326"/>
      <point x="280" y="395"/>
      <point x="342" y="395" type="qcurve"/>
      <point x="402" y="395"/>
      <point x="472" y="343"/>
      <point x="472" y="299" type="qcurve"/>
      <point x="472" y="259"/>
      <point x="414" y="201"/>
      <point x="365" y="192" type="qcurve"/>
      <point x="365" y="190" type="line"/>
      <point x="396" y="179"/>
      <point x="430" y="136"/>
    </contour>
    <contour>
      <point x="343" y="344" type="qcurve"/>
      <point x="306" y="344"/>
      <point x="256" y="300"/>
      <point x="256" y="268" type="qcurve"/>
      <point x="256" y="245"/>
      <point x="290" y="217"/>
      <point x="319" y="217" type="qcurve"/>
      <point x="356" y="217"/>
      <point x="410" y="263"/>
      <point x="410" y="294" type="qcurve"/>
      <point x="410" y="318"/>
      <point x="375" y="344"/>
    </contour>
    <contour>
      <point x="294" y="173" type="qcurve"/>
      <point x="252" y="173"/>
      <point x="194" y="125"/>
      <point x="194" y="92" type="qcurve"/>
      <point x="194" y="66"/>
      <point x="234" y="35"/>
      <point x="269" y="35" type="qcurve"/>
      <point x="311" y="35"/>
      <point x="370" y="83"/>
      <point x="370" y="117" type="qcurve"/>
      <point x="370" y="142"/>
      <point x="328" y="173"/>
    </contour>
  </outline>
</glyph>
<glyph name="hookcmb.cap" format="2">
  <outline>
    <contour>
      <point x="317" y="845" type="qcurve"/>
      <point x="317" y="799"/>
      <point x="196" y="745"/>
      <point x="69" y="731" type="qcurve"/>
      <point x="61" y="772" type="line"/>
      <point x="62" y="774" type="line"/>
      <point x="155" y="790"/>
      <point x="235" y="817"/>
      <point x="235" y="837" type="qcurve"/>
      <point x="235" y="853"/>
      <point x="169" y="874"/>
      <point x="89" y="887" type="qcurve"/>
      <point x="89" y="890" type="line"/>
      <point x="142" y="935" type="line"/>
      <point x="233" y="921"/>
      <point x="317" y="879"/>
    </contour>
  </outline>
</glyph>
<glyph name="middotcat.cap" format="2">
  <advance width="614"/>
  <outline>
    <contour>
      <point x="355" y="394" type="qcurve"/>
      <point x="355" y="348"/>
      <point x="300" y="285"/>
      <point x="259" y="285" type="qcurve"/>
      <point x="228" y="285"/>
      <point x="195" y="313"/>
      <point x="195" y="338" type="qcurve"/>
      <point x="195" y="383"/>
      <point x="252" y="447"/>
      <point x="292" y="447" type="qcurve"/>
      <point x="322" y="447"/>
      <point x="355" y="419"/>
    </contour>
  </outline>
</glyph>
<glyph name="nine.den" format="2">
  <advance width="614"/>
  <outline>
    <contour>
      <point x="147" y="1" type="line"/>
      <point x="245" y="77" type="line"/>
      <point x="260" y="89"/>
      <point x="291" y="114"/>
      <point x="309" y="130" type="qcurve"/>
      <point x="233" y="142"/>
      <point x="165" y="194"/>
      <point x="165" y="241" type="qcurve"/>
      <point x="165" y="303"/>
      <point x="267" y="395"/>
      <point x="339" y="395" type="qcurve"/>
      <point x="398" y="395"/>
      <point x="465" y="337"/>
      <point x="465" y="286" type="qcurve"/>
      <point x="465" y="233"/>
      <point x="392" y="130"/>
      <point x="305" y="59" type="qcurve"/>
      <point x="230" y="0" type="line"/>
      <point x="147" y="0" type="line"/>
    </contour>
    <contour>
      <point x="335" y="342" type="qcurve"/>
      <point x="292" y="342"/>
      <point x="230" y="283"/>
      <point x="230" y="245" type="qcurve"/>
      <point x="230" y="210"/>
      <point x="282" y="174"/>
      <point x="345" y="166" type="qcurve"/>
      <point x="374" y="198"/>
      <point x="401" y="253"/>
      <point x="401" y="281" type="qcurve"/>
      <point x="401" y="310"/>
      <point x="366" y="342"/>
    </contour>
  </outline>
</glyph>
<glyph name="one.den" format="2">
  <advance width="614"/>
  <outline>
    <contour>
      <point x="387" y="0" type="line"/>
      <point x="119" y="0" type="line"/>
      <point x="134" y="54" type="line"/>
      <point x="229" y="54" type="line"/>
      <point x="317" y="295" type="line"/>
      <point x="200" y="246" type="line"/>
      <point x="218" y="310" type="line"/>
      <point x="383" y="380" type="line"/>
      <point x="410" y="380" type="line"/>
      <point x="292" y="54" type="line"/>
      <point x="402" y="54" type="line"/>
    </contour>
  </outline>
</glyph>
<glyph name="seven.den" format="2">
  <advance width="614"/>
  <outline>
    <contour>
      <point x="483" y="331" type="line"/>
      <point x="221" y="0" type="line"/>
      <point x="147" y="0" type="line"/>
      <point x="147" y="2" type="line"/>
      <point x="410" y="322" type="line"/>
      <point x="410" y="325" type="line"/>
      <point x="185" y="325" type="line"/>
      <point x="201" y="380" type="line"/>
      <point x="495" y="380" type="line"/>
    </contour>
  </outline>
</glyph>
<glyph name="six.den" format="2">
  <advance width="614"/>
  <outline>
    <contour>
      <point x="448" y="379" type="line"/>
      <point x="350" y="303" type="line"/>
      <point x="328" y="286"/>
      <point x="298" y="261"/>
      <point x="287" y="250" type="qcurve"/>
      <point x="362" y="238"/>
      <point x="430" y="186"/>
      <point x="430" y="139" type="qcurve"/>
      <point x="430" y="77"/>
      <point x="328" y="-15"/>
      <point x="255" y="-15" type="qcurve"/>
      <point x="197" y="-15"/>
      <point x="130" y="43"/>
      <point x="130" y="94" type="qcurve"/>
      <point x="130" y="147"/>
      <point x="204" y="252"/>
      <point x="290" y="321" type="qcurve"/>
      <point x="365" y="380" type="line"/>
      <point x="448" y="380" type="line"/>
    </contour>
    <contour>
      <point x="250" y="215" type="qcurve"/>
      <point x="221" y="183"/>
      <point x="194" y="128"/>
      <point x="194" y="99" type="qcurve"/>
      <point x="194" y="70"/>
      <point x="229" y="38"/>
      <point x="260" y="38" type="qcurve"/>
      <point x="302" y="38"/>
      <point x="365" y="98"/>
      <point x="365" y="135" type="qcurve"/>
      <point x="365" y="170"/>
      <point x="313" y="206"/>
    </contour>
  </outline>
</glyph>
<glyph name="tildecmb.cap" format="2">
  <outline>
    <contour>
      <point x="331" y="905" type="qcurve"/>
      <point x="379" y="879" type="line"/>
      <point x="325" y="797"/>
      <point x="258" y="731"/>
      <point x="225" y="731" type="qcurve"/>
      <point x="206" y="731"/>
      <point x="173" y="756"/>
      <point x="145" y="792" type="qcurve"/>
      <point x="123" y="819"/>
      <point x="101" y="838"/>
      <point x="92" y="838" type="qcurve"/>
      <point x="78" y="838"/>
      <point x="40" y="794"/>
      <point x="-5" y="729" type="qcurve"/>
      <point x="-53" y="757" type="line"/>
      <point x="0" y="837"/>
      <point x="67" y="904"/>
      <point x="100" y="904" type="qcurve"/>
      <point x="118" y="904"/>
      <point x="151" y="879"/>
      <point x="180" y="842" type="qcurve"/>
      <point x="202" y="816"/>
      <point x="224" y="796"/>
      <point x="234" y="796" type="qcurve"/>
      <point x="247" y="796"/>
      <point x="288" y="842"/>
    </contour>
  </outline>
</glyph>
